<svg viewBox="0 0 330 200" xmlns="http://www.w3.org/2000/svg"><g><g><g><g><g><line x1="48.875" y1="177" x2="43.875" y2="177" style="visibility: inherit;" fill="rgb(0, 0, 0)" stroke="rgb(204, 204, 204)" stroke-width="1px"></line><line x1="48.875" y1="160.90909090909088" x2="43.875" y2="160.90909090909088" style="visibility: inherit;" fill="rgb(0, 0, 0)" stroke="rgb(204, 204, 204)" stroke-width="1px"></line><line x1="48.875" y1="144.81818181818178" x2="43.875" y2="144.81818181818178" style="visibility: inherit;" fill="rgb(0, 0, 0)" stroke="rgb(204, 204, 204)" stroke-width="1px"></line><line x1="48.875" y1="128.7272727272727" x2="43.875" y2="128.7272727272727" style="visibility: inherit;" fill="rgb(0, 0, 0)" stroke="rgb(204, 204, 204)" stroke-width="1px"></line><line x1="48.875" y1="112.63636363636367" x2="43.875" y2="112.63636363636367" style="visibility: inherit;" fill="rgb(0, 0, 0)" stroke="rgb(204, 204, 204)" stroke-width="1px"></line><line x1="48.875" y1="96.54545454545456" x2="43.875" y2="96.54545454545456" style="visibility: inherit;" fill="rgb(0, 0, 0)" stroke="rgb(204, 204, 204)" stroke-width="1px"></line><line x1="48.875" y1="80.45454545454544" x2="43.875" y2="80.45454545454544" style="visibility: inherit;" fill="rgb(0, 0, 0)" stroke="rgb(204, 204, 204)" stroke-width="1px"></line><line x1="48.875" y1="64.36363636363635" x2="43.875" y2="64.36363636363635" style="visibility: inherit;" fill="rgb(0, 0, 0)" stroke="rgb(204, 204, 204)" stroke-width="1px"></line><line x1="48.875" y1="48.272727272727224" x2="43.875" y2="48.272727272727224" style="visibility: inherit;" fill="rgb(0, 0, 0)" stroke="rgb(204, 204, 204)" stroke-width="1px"></line><line x1="48.875" y1="32.18181818181813" x2="43.875" y2="32.18181818181813" style="visibility: inherit;" fill="rgb(0, 0, 0)" stroke="rgb(204, 204, 204)" stroke-width="1px"></line><line x1="48.875" y1="16.090909090909122" x2="43.875" y2="16.090909090909122" style="visibility: inherit;" fill="rgb(0, 0, 0)" stroke="rgb(204, 204, 204)" stroke-width="1px"></line><line x1="48.875" y1="0" x2="43.875" y2="0" style="visibility: inherit;" fill="rgb(0, 0, 0)" stroke="rgb(204, 204, 204)" stroke-width="1px"></line></g><g transform="translate(38.875, 0)"><text x="0" y="177" dx="0em" dy="0.3em" style="text-anchor: end; visibility: hidden; font-family: &quot;Helvetica Neue&quot;, sans-serif; font-size: 12px; font-weight: 200;" fill="rgb(50, 49, 63)" stroke="none" stroke-width="1px">0.62</text><text x="0" y="160.90909090909088" dx="0em" dy="0.3em" style="text-anchor: end; visibility: inherit; font-family: &quot;Helvetica Neue&quot;, sans-serif; font-size: 12px; font-weight: 200;" fill="rgb(50, 49, 63)" stroke="none" stroke-width="1px">0.64</text><text x="0" y="144.81818181818178" dx="0em" dy="0.3em" style="text-anchor: end; visibility: hidden; font-family: &quot;Helvetica Neue&quot;, sans-serif; font-size: 12px; font-weight: 200;" fill="rgb(50, 49, 63)" stroke="none" stroke-width="1px">0.66</text><text x="0" y="128.7272727272727" dx="0em" dy="0.3em" style="text-anchor: end; visibility: inherit; font-family: &quot;Helvetica Neue&quot;, sans-serif; font-size: 12px; font-weight: 200;" fill="rgb(50, 49, 63)" stroke="none" stroke-width="1px">0.68</text><text x="0" y="112.63636363636367" dx="0em" dy="0.3em" style="text-anchor: end; visibility: hidden; font-family: &quot;Helvetica Neue&quot;, sans-serif; font-size: 12px; font-weight: 200;" fill="rgb(50, 49, 63)" stroke="none" stroke-width="1px">0.7</text><text x="0" y="96.54545454545456" dx="0em" dy="0.3em" style="text-anchor: end; visibility: inherit; font-family: &quot;Helvetica Neue&quot;, sans-serif; font-size: 12px; font-weight: 200;" fill="rgb(50, 49, 63)" stroke="none" stroke-width="1px">0.72</text><text x="0" y="80.45454545454544" dx="0em" dy="0.3em" style="text-anchor: end; visibility: hidden; font-family: &quot;Helvetica Neue&quot;, sans-serif; font-size: 12px; font-weight: 200;" fill="rgb(50, 49, 63)" stroke="none" stroke-width="1px">0.74</text><text x="0" y="64.36363636363635" dx="0em" dy="0.3em" style="text-anchor: end; visibility: inherit; font-family: &quot;Helvetica Neue&quot;, sans-serif; font-size: 12px; font-weight: 200;" fill="rgb(50, 49, 63)" stroke="none" stroke-width="1px">0.76</text><text x="0" y="48.272727272727224" dx="0em" dy="0.3em" style="text-anchor: end; visibility: hidden; font-family: &quot;Helvetica Neue&quot;, sans-serif; font-size: 12px; font-weight: 200;" fill="rgb(50, 49, 63)" stroke="none" stroke-width="1px">0.78</text><text x="0" y="32.18181818181813" dx="0em" dy="0.3em" style="text-anchor: end; visibility: inherit; font-family: &quot;Helvetica Neue&quot;, sans-serif; font-size: 12px; font-weight: 200;" fill="rgb(50, 49, 63)" stroke="none" stroke-width="1px">0.8</text><text x="0" y="16.090909090909122" dx="0em" dy="0.3em" style="text-anchor: end; visibility: hidden; font-family: &quot;Helvetica Neue&quot;, sans-serif; font-size: 12px; font-weight: 200;" fill="rgb(50, 49, 63)" stroke="none" stroke-width="1px">0.82</text><text x="0" y="0" dx="0em" dy="0.3em" style="text-anchor: end; visibility: hidden; font-family: &quot;Helvetica Neue&quot;, sans-serif; font-size: 12px; font-weight: 200;" fill="rgb(50, 49, 63)" stroke="none" stroke-width="1px">0.84</text></g><line x1="48.875" y1="0" x2="48.875" y2="177" fill="rgb(0, 0, 0)" stroke="rgb(204, 204, 204)" stroke-width="1px"></line></g></g><g transform="translate(48, 0)" clip-path="url(#clip_0)"><clipPath id="clip_0"><rect width="281" height="177"></rect></clipPath><g><g><g><line x1="0" y1="0" x2="0" y2="177" fill="rgb(0, 0, 0)" stroke="rgb(60, 60, 60)" stroke-width="1px" opacity="0.25"></line><line x1="31.23611111111111" y1="0" x2="31.23611111111111" y2="177" fill="rgb(0, 0, 0)" stroke="rgb(60, 60, 60)" stroke-width="1px" opacity="0.25"></line><line x1="62.47222222222222" y1="0" x2="62.47222222222222" y2="177" fill="rgb(0, 0, 0)" stroke="rgb(60, 60, 60)" stroke-width="1px" opacity="0.25"></line><line x1="93.70833333333333" y1="0" x2="93.70833333333333" y2="177" fill="rgb(0, 0, 0)" stroke="rgb(60, 60, 60)" stroke-width="1px" opacity="0.25"></line><line x1="124.94444444444444" y1="0" x2="124.94444444444444" y2="177" fill="rgb(0, 0, 0)" stroke="rgb(60, 60, 60)" stroke-width="1px" opacity="0.25"></line><line x1="156.18055555555557" y1="0" x2="156.18055555555557" y2="177" fill="rgb(0, 0, 0)" stroke="rgb(60, 60, 60)" stroke-width="1px" opacity="0.25"></line><line x1="187.41666666666666" y1="0" x2="187.41666666666666" y2="177" fill="rgb(0, 0, 0)" stroke="rgb(60, 60, 60)" stroke-width="1px" opacity="0.25"></line><line x1="218.65277777777777" y1="0" x2="218.65277777777777" y2="177" fill="rgb(0, 0, 0)" stroke="rgb(60, 60, 60)" stroke-width="1px" opacity="0.25"></line><line x1="249.88888888888889" y1="0" x2="249.88888888888889" y2="177" fill="rgb(0, 0, 0)" stroke="rgb(60, 60, 60)" stroke-width="1px" opacity="0.25"></line><line x1="281.125" y1="0" x2="281.125" y2="177" fill="rgb(0, 0, 0)" stroke="rgb(60, 60, 60)" stroke-width="1px" opacity="0.25"></line></g><g><line x1="0" y1="177" x2="281.125" y2="177" fill="rgb(0, 0, 0)" stroke="rgb(60, 60, 60)" stroke-width="1px" opacity="0.25"></line><line x1="0" y1="160.90909090909088" x2="281.125" y2="160.90909090909088" fill="rgb(0, 0, 0)" stroke="rgb(60, 60, 60)" stroke-width="1px" opacity="0.25"></line><line x1="0" y1="144.81818181818178" x2="281.125" y2="144.81818181818178" fill="rgb(0, 0, 0)" stroke="rgb(60, 60, 60)" stroke-width="1px" opacity="0.25"></line><line x1="0" y1="128.7272727272727" x2="281.125" y2="128.7272727272727" fill="rgb(0, 0, 0)" stroke="rgb(60, 60, 60)" stroke-width="1px" opacity="0.25"></line><line x1="0" y1="112.63636363636367" x2="281.125" y2="112.63636363636367" fill="rgb(0, 0, 0)" stroke="rgb(60, 60, 60)" stroke-width="1px" opacity="0.25"></line><line x1="0" y1="96.54545454545456" x2="281.125" y2="96.54545454545456" fill="rgb(0, 0, 0)" stroke="rgb(60, 60, 60)" stroke-width="1px" opacity="0.25"></line><line x1="0" y1="80.45454545454544" x2="281.125" y2="80.45454545454544" fill="rgb(0, 0, 0)" stroke="rgb(60, 60, 60)" stroke-width="1px" opacity="0.25"></line><line x1="0" y1="64.36363636363635" x2="281.125" y2="64.36363636363635" fill="rgb(0, 0, 0)" stroke="rgb(60, 60, 60)" stroke-width="1px" opacity="0.25"></line><line x1="0" y1="48.272727272727224" x2="281.125" y2="48.272727272727224" fill="rgb(0, 0, 0)" stroke="rgb(60, 60, 60)" stroke-width="1px" opacity="0.25"></line><line x1="0" y1="32.18181818181813" x2="281.125" y2="32.18181818181813" fill="rgb(0, 0, 0)" stroke="rgb(60, 60, 60)" stroke-width="1px" opacity="0.25"></line><line x1="0" y1="16.090909090909122" x2="281.125" y2="16.090909090909122" fill="rgb(0, 0, 0)" stroke="rgb(60, 60, 60)" stroke-width="1px" opacity="0.25"></line><line x1="0" y1="0" x2="281.125" y2="0" fill="rgb(0, 0, 0)" stroke="rgb(60, 60, 60)" stroke-width="1px" opacity="0.25"></line></g></g></g><g><g><line x1="0" y1="675.8181818181819" x2="281.125" y2="675.8181818181819" fill="rgb(0, 0, 0)" stroke="rgb(153, 153, 153)" stroke-width="1.5px"></line></g></g><g><g><line x1="31.23611111111111" y1="0" x2="31.23611111111111" y2="177" fill="rgb(0, 0, 0)" stroke="rgb(153, 153, 153)" stroke-width="1.5px"></line></g></g><g><g><g><g><g><path style="fill: none;" stroke="rgb(238, 51, 119)" stroke-width="2px" d="M39.638625,180.3900902439726L39.76356944444445,176.54998246032054L39.82604166666667,171.49569972307305L40.41952777777778,173.0046655260685L40.91930555555555,170.19724276633775L40.98177777777778,172.11144008914235L41.23166666666667,164.97287767580704L41.6065,157.81478248884184L41.887625,164.34875585502607L42.13751388888888,166.13976176053103L42.63729166666667,163.25442408534462L42.762236111111115,165.44228615711032L44.44898611111111,159.25936613221282L44.48022222222222,157.4749931566076L45.01123611111112,158.1861913811477L45.07370833333333,159.65594304876632L45.10494444444444,158.9710965817629L45.198652777777774,157.23309182748386L45.66719444444445,147.3987061736976L45.76090277777777,143.55680609904746L45.792138888888886,143.66468629663328L46.1045,146.88674830940306L46.63551388888889,146.26983416894043L46.697986111111106,148.05004873980835L47.353944444444444,145.10811407251998L47.447652777777776,148.48662615024196L47.697541666666666,149.25780121750986L47.88495833333334,144.62939167182006L48.04113888888889,142.70605373478134L48.22855555555555,142.62406749349188L48.38473611111111,141.51264197557347L48.69709722222222,147.89383444581313L48.88451388888889,148.5259315877247L49.196875,139.49800368980897L49.38429166666667,134.9003123051468L49.44676388888889,134.85570025699778L49.60294444444444,141.61269316393245L49.63418055555555,143.49901281622274L50.102722222222226,145.00765139791068L50.664972222222225,147.0859010979586L50.727444444444444,151.32078982058215L51.10227777777778,146.43105474347064L51.320930555555556,146.1509854444461L51.35216666666667,146.56996627793836L51.41463888888889,145.71321881771485L51.50834722222223,142.98389587758038L51.570819444444446,141.9255942374677L51.94565277777778,142.65567102525623L52.25801388888889,145.0232777809196L52.35172222222223,145.24737341602295L52.632847222222225,143.55884451941796L52.789027777777775,139.47068345982257L53.60116666666667,141.82982455211481L53.726111111111116,141.62004952630866L53.851055555555554,138.24600533518796L53.88229166666667,140.32747479493494L54.100944444444444,144.1385923896951L54.38206944444445,136.10760985408018L54.50701388888889,130.44110546357615L54.63195833333333,129.15197452865897L54.78813888888889,122.75332007982054L54.91308333333333,118.22582478520812L55.194208333333336,119.38584691999874L55.319152777777774,124.27440062972835L55.35038888888889,130.37085148959932L55.381625,132.35013675796193L55.44409722222222,135.99745516840932L55.66275,141.24424008321085L55.81893055555556,142.64390381992112L55.88140277777778,142.6124236892693L56.03758333333333,141.34122880275334L56.10005555555556,141.3678261625377L56.225,138.66059368558192L56.349944444444446,136.20796237142628L56.53736111111111,130.4797949288483L56.56859722222222,125.5666010945285L57.28702777777778,117.41094450875686L57.411972222222225,113.86049164640369L58.44276388888889,120.31929985088767L58.59894444444444,116.23457389822292L58.66141666666667,114.28770329261776L58.84883333333334,112.40755034509269L59.09872222222222,116.43007528741391L59.286138888888885,114.36113521594976L59.41108333333334,108.27859620209769L59.629736111111114,110.69092368836762L59.69220833333334,113.32861204001645L59.879625,119.63868996532766L59.94209722222222,123.8929275205743L60.379402777777784,121.76603651285785L60.41063888888888,121.66028299908567L60.723,117.25237014336368L60.81670833333333,116.30132298191718L61.097833333333334,121.6459769995233L61.22277777777777,118.83492169869712L61.347722222222224,110.00995172967717L61.62884722222223,104.20406094952725L61.66008333333333,100.29992587209148L61.847500000000004,107.24742985381019L61.87873611111112,114.63395753705865L62.03491666666667,117.88632412783015L62.40975,113.1744651991393L62.59716666666667,109.2332866873574L62.690875,106.53470015281195L62.972,102.14651269765949L63.06570833333333,99.64349976971737L63.315597222222216,93.26299732692937L63.909083333333335,95.64511024921966L64.31515277777778,101.35007178765433L64.50256944444445,106.00059173963338L64.59627777777777,110.05036535213243L64.65875,113.58282192287025L64.78369444444445,118.96608907369534L64.97111111111111,114.89157849998122L65.12729166666666,112.31357742166476L65.43965277777778,113.40543321749054L65.62706944444444,115.82874958503534L65.7520138888889,114.86430987914648L65.78325000000001,116.16519963372981L66.09561111111111,110.20100843251926L66.25179166666666,115.84687678421248L67.40752777777777,110.09188289450067L67.53247222222222,110.16121285669975L67.56370833333334,106.67720444020502L67.59494444444444,103.42510768131L68.15719444444444,106.24702490888484L68.53202777777778,113.17584431645378L68.56326388888888,115.7895718147798L68.75068055555556,117.24609317039844L68.96933333333332,120.80322188367053L69.78147222222222,111.4452641013133L69.84394444444445,104.98652602559623L70.15630555555556,103.39185269019234L70.49990277777778,96.60807965059361L70.59361111111112,94.8040756704873L70.68731944444446,93.49816626823554L71.31204166666666,93.91293050358657L71.49945833333334,100.2721316774377L71.71811111111111,103.77082562639816L71.90552777777778,103.88063391454624L72.2178888888889,100.82478652243375L72.40530555555556,102.45573271637076L72.49901388888888,105.78020335250224L72.84261111111111,111.8777893386887L72.93631944444444,111.84034208833451L73.03002777777778,107.82116090176973L73.06126388888889,106.24569348861043L74.56059722222223,102.62368060895633L74.65430555555555,102.97862263768211L74.74801388888889,100.40847283641983L74.77925,97.90061474845913L75.46644444444443,96.10147755095477L75.84127777777778,103.40308626361343L75.90375,108.51829466740877L76.02869444444444,102.66488236119882L76.15363888888889,95.1577525990854L76.27858333333333,93.11151480584874L77.05948611111111,98.8525029263739L77.09072222222221,105.9233110398612L77.43431944444444,100.35696079165382L77.68420833333333,93.5193963073259L77.80915277777778,92.55092391668786L77.87162500000001,92.30941692172897L78.18398611111111,88.94830970708539L78.40263888888889,91.12974854609318L78.87118055555555,94.03893511474696L78.996125,92.63265671881017L79.74579166666668,99.70081163757051L79.77702777777779,103.43162061000038L80.27680555555555,103.83148650118754L80.30804166666667,103.79620391329817L80.77658333333333,97.05302062696096L80.90152777777779,93.18227938615446L81.18265277777779,88.84838660512986L81.40130555555555,83.03969329893636L81.43254166666667,84.00334491800203L81.8386111111111,96.29856309846323L82.11973611111111,92.29630586944289L82.27591666666667,92.09649178540975L82.43209722222223,94.37686764149174L82.52580555555556,96.52291751364761L82.68198611111112,96.81642844300853L82.77569444444444,93.20787760899026L83.15052777777777,93.95578085408489L83.40041666666667,86.42266378905803L83.61906944444445,85.41338054872138L83.83772222222223,86.48773858216798L84.11884722222223,85.22161012234547L84.24379166666668,86.87934593437198L84.27502777777777,87.69855014457428L84.30626388888888,88.03218679412682L84.3687361111111,89.7223196358189L84.46244444444444,90.4000646354813L84.68109722222222,87.48473985034035L84.96222222222222,84.20724959233452L85.27458333333334,85.15185181533721L85.39952777777778,89.64951302928803L85.462,92.08391802178397L85.55570833333334,91.32270717584673L85.71188888888888,85.86981628136161L85.80559722222222,82.6742337225564L85.83683333333333,79.02948111006111L85.86806944444444,75.79081151853548L86.46155555555556,74.11579132604376L86.74268055555557,73.27526364641052L86.93009722222223,76.62788167275255L87.14874999999999,77.55519794195882L87.1799861111111,78.35295302784978L87.46111111111111,74.22586923852931L87.67976388888889,83.09835449249587L88.05459722222223,85.84274887242181L88.33572222222223,82.44875756566135L88.46066666666667,83.59394254484424L88.77302777777777,81.94861627718817L88.89797222222222,82.26452088578786L89.17909722222223,84.14628719983682L89.58516666666667,89.98111722072687L89.678875,86.34425390048894L89.86629166666667,89.43687842495056L89.9287638888889,95.88102221720592L90.99079166666667,89.04961342083585L91.17820833333333,91.78618502353474L91.70922222222222,90.31917073785355L91.77169444444444,85.52968024072321L91.83416666666666,85.07102027992224L92.02158333333333,84.11185677813289L92.11529166666666,84.12836837315277L92.17776388888889,87.72102448018076L92.7400138888889,85.30287664336967L93.17731944444444,85.84611475967989L93.23979166666666,85.1391912815462L93.80204166666667,81.5989826597539L93.92698611111112,81.53633180995118L94.17687500000001,83.63182150078501L94.30181944444445,79.5811114561989L94.61418055555555,82.48633034650189L94.70788888888889,88.71891809586008L94.89530555555555,89.92742452833683L95.64497222222222,83.67886785374445L96.01980555555555,77.99654779475922L96.05104166666666,75.20743951475718L96.14475,72.53264317406146L96.1759861111111,71.58614429583449L96.23845833333333,70.88698351180186L96.30093055555555,71.71885393844519L96.425875,72.90207799274874L96.55081944444444,71.06692508783703L96.707,68.23961954289912L96.76947222222222,69.34465072735696L97.2380138888889,65.45853826134316L98.30004166666667,68.1720448168939L98.42498611111111,68.95819943905462L98.48745833333334,70.10538135624282L98.64363888888889,77.6274961109702L98.92476388888888,78.8449380518804L99.17465277777778,74.88910257025144L99.29959722222222,73.42012181457572L99.61195833333333,79.4951494045386L99.67443055555556,85.22782351851806L99.73690277777779,83.21809219505779L99.76813888888888,83.20900954715246L99.89308333333334,82.8320840884502L99.98679166666668,85.36397314278545L100.23668055555557,88.38186190035721L100.36162499999999,92.92353551852413L100.79893055555556,89.78790648955908L100.98634722222222,85.57146390241213L101.14252777777777,85.0380653552468L101.17376388888889,86.25623863466653L101.23623611111111,89.16491653312809L101.32994444444445,80.10774461772502L101.39241666666668,76.02597348679795L101.45488888888889,73.11366892765139L101.486125,72.51852124496585L101.70477777777776,71.90249672868423L101.7984861111111,77.1437866041466L101.95466666666667,73.8900488378972L102.54815277777777,73.51507284958831L102.86051388888889,79.13311151044826L103.04793055555557,86.30928932382298L103.23534722222223,91.32785141592134L103.36029166666665,93.80603991712982L103.39152777777777,98.31110334744481L103.735125,94.99007877211936L103.76636111111111,92.29348982329408L104.23490277777778,87.56471856643266L104.54726388888889,80.82201025827615L104.82838888888888,77.76670625934965L105.35940277777777,80.23448015257972L105.92165277777778,79.86455551659935L105.95288888888889,78.86374055615045L106.01536111111112,82.51293476493834L106.32772222222222,83.91703091577432L106.45266666666666,81.43502317974409L107.04615277777778,69.30366594694081L107.38975,63.141427585277924L107.63963888888888,65.65217795137563L107.82705555555555,69.33987401821614L107.85829166666666,71.45399281538745L107.92076388888889,72.55404737685456L107.98323611111111,75.64213893307209L108.13941666666666,79.5151312852028L108.92031944444444,84.10618399677143L108.95155555555556,85.11179459207283L109.26391666666666,80.46314893486455L109.32638888888889,76.0832867500706L109.48256944444444,74.03065255475458L109.919875,73.94935054080946L110.10729166666667,72.65401708184045L110.32594444444445,78.55242982457003L110.38841666666667,84.72345862629687L110.4508888888889,87.89293533469841L110.85695833333332,90.743873986852L110.98190277777778,86.38280353577404L111.044375,86.72120328054983L111.45044444444444,77.28417000140264L111.82527777777779,75.3313378131502L112.20011111111111,71.78363924458486L112.23134722222221,68.88720867502882L112.26258333333332,68.97252842954623L112.51247222222221,68.58445572467825L112.69988888888889,66.98626660202524L113.23090277777779,61.95740395667359L113.41831944444445,64.83480573172146L113.44955555555556,68.7029396518916L113.69944444444444,75.05298854477493L113.8868611111111,82.10845405038933L114.07427777777778,87.0956379348279L114.23045833333333,92.84236722380814L114.9488888888889,86.56293912426976L115.0113611111111,76.75334213899471L115.16754166666666,70.50051990530484L115.32372222222222,70.34855165979943L115.72979166666667,70.56640963333221L115.94844444444445,69.51078402039734L116.4169861111111,68.0051136414629L116.79181944444444,71.54660837219328L116.88552777777778,76.01008066048833L117.32283333333334,73.03252735442287L117.35406944444445,71.39971878407763L117.41654166666667,71.63829265131852L118.41609722222222,66.62000169268373L118.44733333333333,62.6331692527762L118.47856944444445,62.88268023784234L118.69722222222222,57.057832571922646L119.04081944444445,60.55992882813371L119.5093611111111,61.869225193705844L119.60306944444444,64.59009907170389L119.66554166666667,64.59588671422371L120.602625,54.89876741044088L120.97745833333333,53.16130193179089L121.00869444444444,53.495830714246125L121.28981944444445,52.09353925829289L121.57094444444445,55.83570781539608L121.75836111111111,57.39897879204858L121.88330555555557,59.702536241931654L122.41431944444444,60.08805807633577L122.47679166666666,58.54675645949476L122.50802777777777,57.76610797347932L122.53926388888888,55.416074481186726L122.88286111111111,53.84701759773775L123.44511111111112,57.83029543201546L123.976125,63.0713001117081L124.19477777777777,72.97764228189362L124.22601388888889,79.31001448980679L124.94444444444444,81.58551589135075L125.16309722222223,87.64335148243543L125.22556944444443,90.38506060068863L125.28804166666666,88.49084137649729L125.35051388888888,85.89547196436217L125.47545833333334,86.44645164743946L125.50669444444443,84.67395968312286L125.85029166666666,75.83532838052881L125.944,69.03341345586018L126.19388888888889,73.04416983483809L126.28759722222223,74.89055176038327L126.56872222222223,76.6796821627002L127.03726388888889,72.46288058217435L127.16220833333333,69.38251047980603L127.22468055555555,68.61056331188573L127.69322222222223,64.74334405406067L128.09929166666666,67.99985010406172L128.81772222222222,63.07673140265122L129.2862638888889,62.97923071756874L129.3175,63.30377283709919L129.53615277777777,67.79300929697776L129.69233333333332,68.92156089084615L129.8485138888889,64.71717742795835L129.97345833333333,66.40408290563171L130.03593055555555,69.38996269514325L130.53570833333333,64.62156353880694L130.87930555555556,65.52344839106205L131.09795833333334,67.14160228839367L131.12919444444444,69.23179442870583L131.3478472222222,71.57208244533307L131.44155555555557,69.96608457881784L132.19122222222222,73.47903288337555L132.28493055555555,71.75685610677036L132.50358333333332,72.94515451808277L132.59729166666668,69.59528168072187L132.62852777777778,68.40173787221518L132.691,74.81403135483765L132.7222361111111,77.17479423581378L133.34695833333333,75.15737321749978L133.50313888888888,71.18502072341448L133.7842638888889,66.50047676472191L133.8467361111111,63.76772464394115L134.53393055555557,62.21586873741309L134.78381944444445,61.40632981209595L135.221125,57.078883036502376L135.2523611111111,55.85811867441974L135.40854166666668,58.14315820357409L135.56472222222223,61.25223092969614L135.783375,63.41882974239911L136.6892222222222,61.783254964600886L136.75169444444444,60.84054236075873L136.81416666666667,60.15535427498676L137.06405555555557,57.64988939493705L137.59506944444445,57.37731850246291L137.75125,53.278905442138566L138.43844444444446,61.625190266618986L138.53215277777778,63.62890949764835L138.68833333333333,58.145170014613754L138.9069861111111,60.600142282608076L139.03193055555556,62.16370237881442L139.09440277777776,60.68519282295465L139.28181944444444,62.883987742931026L139.31305555555556,62.94382223546364L139.50047222222221,59.924494069087714L139.719125,64.428965233345L139.90654166666667,62.427201247668805L140.00025,60.48652875970821L140.5312638888889,65.85136132351985L140.5937361111111,65.63830030074809L140.90609722222223,65.78392026057134L140.99980555555555,62.82463766527887L141.21845833333333,58.73425898081592L141.7182361111111,53.03833606264365L141.78070833333334,51.34003309912849L141.96812500000001,58.84811629467718L142.09306944444447,59.69776718277747L142.15554166666666,56.802605211219486L142.59284722222222,65.08488322248752L143.1238611111111,75.22959215557442L143.49869444444445,80.81563673792893L143.74858333333333,81.7572931604844L144.31083333333333,69.88760893632L144.37330555555556,60.74040515421706L144.4357777777778,56.22627192800029L144.5294861111111,58.06765207957825L144.62319444444447,57.651991799976415L145.15420833333332,57.91567198095353L145.49780555555554,63.655877614148054L145.52904166666667,64.5915126424163L145.71645833333332,62.01245898242664L145.9351111111111,57.22434771743394L146.87219444444446,55.06259081339665L146.93466666666666,56.084584988970136L147.68433333333334,61.247066125869964L147.8092777777778,66.84776814859578L147.84051388888886,67.07755661492796L147.87175000000002,67.91775425853388L148.05916666666664,67.52705833175114L148.152875,65.23037999621391L148.21534722222222,65.21290384816301L148.49647222222222,64.14505657822376L148.715125,57.901826103153795L149.12119444444446,62.7983892156781L149.37108333333333,64.81954934236744L149.7771527777778,66.6471198896986L149.839625,65.66014793951213L149.93333333333334,62.85750495186059L150.30816666666666,65.67707650807593L150.43311111111112,65.63180625352972L150.58929166666667,62.61302228139252L150.6517638888889,59.57733551211274L150.964125,63.47441907959548L151.08906944444442,63.389022228181915L151.49513888888887,51.91692480215511L151.99491666666665,48.91452075809778L152.15109722222223,53.044799498794305L152.36975,57.55553400586173L153.1506527777778,55.06944563864113L153.1818888888889,52.40917625842471L153.4317777777778,52.291322094200794L153.74413888888887,49.614754130731185L153.99402777777777,54.31425466717323L154.21268055555555,61.245279429387665L154.337625,67.0119286590461L154.6812222222222,57.89867037399296L154.86863888888888,57.33265850137609L155.05605555555556,53.27426448794951L155.74325000000002,52.908509419538916L156.08684722222222,50.77261608665435L156.2430277777778,53.55352915204526L156.5241527777778,54.31701936594277L156.5553888888889,54.447295534062405L156.8989861111111,57.51913551319336L156.9302222222222,56.756479945028644L157.27381944444443,55.494859827035796L157.36752777777778,59.28569538469834L157.58618055555556,56.92288653949875L157.67988888888888,55.556742885925345L157.711125,55.99596206119912L157.7423611111111,55.3811370879324L159.14798611111112,55.546821315987714L159.30416666666667,54.89234645360938L159.3354027777778,58.25663950613229L159.64776388888887,53.71373457707156L161.45945833333334,55.43183357551375L161.928,60.687765835296844L162.27159722222223,64.91541335280853L162.30283333333335,66.99524345086775L162.36530555555558,67.81408170079882L162.42777777777775,65.74535464556254L162.52148611111113,68.30331565273006L162.5527222222222,68.34031520683887L162.61519444444443,72.99196055715333L163.33362499999998,70.26657138035277L163.48980555555556,65.2746469256126L163.5835138888889,63.55280319585185L163.83340277777776,58.44383977384547L164.177,60.53757599475331L164.458125,54.398501581661236L164.55183333333335,53.84664877402976L164.58306944444445,52.27978422513341L165.05161111111113,50.99932178203528L165.55138888888888,52.76886172933301L165.73880555555556,56.05222853870406L165.86374999999998,59.34840558732816L166.14487499999998,59.38199210297954L166.2073472222222,57.32104664794471L166.4884722222222,57.05755587018102L166.61341666666667,56.2411400229076L166.80083333333334,56.68995475581413L166.9570138888889,56.27197679060279L167.64420833333335,61.398517106854555L167.76915277777778,59.98329687788922L168.05027777777778,52.701490159155654L168.51881944444443,51.49219530000131L168.7374722222222,58.006350476585894L168.9248888888889,59.79898869067284L169.04983333333334,62.361491737456944L169.08106944444444,62.63863037687051L169.67455555555554,62.05116243431597L169.70579166666667,60.63972799342656L169.7682638888889,56.423247807665106L169.95568055555555,54.417158703797455L170.0493888888889,57.62207175974018L170.8927638888889,49.643823828764184L171.08018055555556,45.54818924725828L171.205125,44.00641614581707L171.2988333333333,42.780388926506674L171.5487222222222,41.61222168778545L171.61119444444444,41.423975692405975L172.14220833333331,46.89688117332676L172.17344444444444,48.358539731557556L172.76693055555555,46.93407631266166L172.79816666666667,48.18955614124013L172.891875,49.67958085618069L173.173,49.97387488197097L173.4228888888889,48.10037099806772L173.48536111111113,46.573392095550275L173.51659722222223,48.29077800437696L173.9851388888889,51.165660326900095L174.29749999999999,62.537127132710694L174.3912083333333,70.17512110745174L174.73480555555554,66.21341620934433L174.8285138888889,67.57587738556025L174.8909861111111,64.13007096862032L174.95345833333332,61.57609682547377L175.32829166666667,57.00705151663078L175.85930555555555,45.07145268590037L176.32784722222223,49.25407181413529L176.5152638888889,47.48133176486445L176.7339166666667,46.53665362115785L176.98380555555556,45.737842157470624L177.10875000000001,45.77907418905937L177.32740277777776,46.26005391028343L177.3586388888889,47.06290736697753L177.389875,50.018810629806154L177.7022361111111,54.211280842237784L178.514375,48.49431215935101L178.67055555555555,46.466228890063945L179.17033333333333,45.289948559027806L179.32651388888888,42.68676847211023L179.51393055555556,42.593634500236135L179.638875,50.04200403665625L179.6701111111111,56.4673259521216L179.92000000000002,57.26462396118629L180.01370833333334,58.722006456131L180.04494444444447,59.05078880878011L180.1074166666667,56.75620053996225L180.201125,56.75037499920096L180.48225,53.325507499527504L180.57595833333332,50.21533542303965L180.60719444444445,46.90938433935207L180.73213888888887,42.69544310257086L180.82584722222222,41.75009958946586L180.85708333333332,40.95744909971552L181.0445,43.91483600541983L181.23191666666668,43.49378936272066L181.29438888888888,44.02848075552055L181.38809722222223,41.591327989077456L182.01281944444446,39.88109162741006L182.4813611111111,47.412859212389975L182.85619444444447,53.72034033219083L183.44968055555555,52.98193860968718L183.51215277777777,52.69158516912478L184.01193055555555,53.746373954944715L184.10563888888888,52.53489235850144L184.1681111111111,50.48978772701544L184.19934722222223,51.26788133510614L184.79283333333333,51.79278180350789L185.54250000000002,45.399365834132794L185.63620833333334,44.84686677505189L186.04227777777777,47.304160188190394L186.29216666666665,52.74967965516582L186.54205555555555,51.5714230122157L186.57329166666665,49.25445892269974L186.667,47.25623473926635L186.72947222222223,47.24131962139319L186.76070833333333,45.22293660926172L187.19801388888888,39.27346986465065L187.44790277777778,37.94609152038339L188.13509722222224,36.26914048539169L188.3225138888889,37.729603400995586L188.41622222222225,35.30913350922805L188.63487500000002,34.83992181765626L189.04094444444442,43.21967523966242L189.10341666666665,46.64444184000601L189.13465277777777,49.02155702149241L189.35330555555555,50.61221465695388L189.91555555555556,50.615112333684266L190.41533333333334,57.03442939850848L190.6339861111111,58.084451671115204L190.79016666666666,57.65505099472071L190.8214027777778,56.00196875330714L191.00881944444444,50.71334476100641L191.4148888888889,48.3553993480312L191.47736111111112,45.165658014178206L191.6647777777778,41.180747961388875L192.47691666666665,43.28672008781297L192.6330972222222,49.58471637625874L193.03916666666666,43.47091185735201L193.1641111111111,42.68255500389873L193.72636111111112,44.48262947707346L193.97625,46.02190703316097L194.69468055555558,45.292342645362936L194.78838888888887,41.415987346757305L194.81962499999997,38.55110640071072L194.94456944444443,39.667179778578344L194.97580555555555,39.06533513876457L195.10074999999998,39.675559301018325L195.66299999999998,44.748461487468575L195.78794444444443,45.18613633396092L196.506375,40.34185916819382L196.91244444444445,44.58112976389597L197.41222222222223,44.78813076659344L197.75581944444443,54.95292169781554L198.2555972222222,51.87419773679012L198.34930555555556,52.58258153793564L198.69290277777776,45.63836381856467L198.7241388888889,40.94795745191925L198.8178472222222,39.62661849008771L199.34886111111112,42.8100033608429L199.47380555555557,45.994745502043116L200.09852777777778,46.25456986973785L200.161,46.809792418724385L200.59830555555558,40.99665569467476L200.7544861111111,40.21122896413064L201.19179166666666,42.0026457619345L201.22302777777776,46.19763611137017L201.28549999999998,49.62505886672332L201.44168055555554,49.17862527094229L202.31629166666667,40.471476323897974L202.59741666666667,31.99766504994568L202.81606944444445,31.950649395068666L202.9410138888889,35.15487087202513L203.12843055555555,40.528565359525714L203.31584722222223,41.189740495060875L203.47202777777775,43.60673644964936L203.56573611111114,44.74895010377898L203.62820833333336,44.08748165360649L204.09675,43.85491238263907L204.377875,42.62133352567085L204.6277638888889,46.135511406282234L205.15877777777777,46.43685689016988L205.31495833333332,49.03789680160871L205.37743055555555,49.36288297530507L205.7522638888889,43.970563780135194L205.81473611111113,43.15924125582143L206.00215277777778,43.57610509090625L206.37698611111114,41.32254968676949L206.53316666666666,39.91858706286487L206.84552777777776,36.54842418731363L207.1578888888889,39.369937528974475L207.22036111111112,39.43056529261165L207.68890277777777,38.14442954089006L208.0325,37.054118239816376L208.09497222222222,36.24444331490446L208.21991666666668,34.53606343236723L208.59475,35.87295527438613L208.68845833333333,44.16942327834434L209.9691388888889,47.709988248234396L210.06284722222222,50.69400057850851L210.18779166666667,55.10069837258311L210.62509722222222,55.787112489042826L210.96869444444445,48.00391477247146L211.18734722222223,42.05276309192226L211.406,40.500387225443944L211.7183611111111,33.12498900959943L211.81206944444446,33.86573145951499L211.96825,34.63764961623187L212.12443055555556,38.09599015533564L212.31184722222224,41.370244266562025L212.68668055555554,40.922505401573204L212.71791666666667,41.94019750752335L213.24893055555555,41.18640718242321L213.34263888888887,40.610736092214495L213.56129166666668,41.048049170490344L213.936125,39.33541533003498L214.40466666666669,42.4084176254016L214.46713888888888,44.07001052958938L214.6857916666667,41.14655886850292L214.9981527777778,39.37670120238002L215.2480416666667,39.28168653955575L215.31051388888886,38.98757079006083L215.3729861111111,36.05455319576336L215.52916666666667,38.08768659365256L215.81029166666667,30.287949898488392L216.12265277777777,30.79386575683236L216.15388888888887,32.73167124461435L216.46625,29.878709206680952L216.59119444444445,30.907693459050563L216.62243055555555,31.61487428968732L217.21591666666666,39.4921020545101L217.37209722222224,42.22450371359096L217.43456944444446,44.438518095838646L217.46580555555556,43.73585564749365L217.5595138888889,43.00170897756169L217.8406388888889,42.19924012555626L218.40288888888887,47.143903739383745L219.0276111111111,45.546512972140334L219.18379166666665,46.40657623459339L219.46491666666665,45.57503109322019L219.65233333333333,46.25394684217537L219.68356944444446,46.66108529110599L219.71480555555556,45.899490887326664L219.80851388888888,43.0344629221845L219.90222222222224,36.693788359764284L220.3395277777778,33.86011993084355L220.58941666666666,40.396474601536454L221.12043055555554,40.90307260528496L221.15166666666664,40.42550495035442L221.2766111111111,45.49402131516112L221.43279166666665,46.699216283810216L221.65144444444442,45.79667076479154L221.93256944444443,47.48021984702794L221.99504166666665,47.77937371442047L222.30740277777778,42.44586565494674L222.49481944444443,40.08425739591857L222.55729166666666,39.02984874630019L222.74470833333334,37.508009328096904L222.80718055555556,40.426558621913045L222.8696527777778,42.91797365980193L223.24448611111112,45.77686381589575L223.30695833333334,47.53096444539764L223.36943055555557,47.05601180166428L224.0878611111111,40.41409561107082L224.21280555555555,37.4246761667537L224.3689861111111,35.81791334664757L224.46269444444442,35.09407006744647L224.9624722222222,41.55813583974688L225.27483333333333,39.368643759430086L225.30606944444443,36.99373137659089L225.36854166666666,34.307231483009105L225.55595833333334,32.410749495496106L225.74337500000001,29.533142472677156L225.9620277777778,33.02128155876835L226.11820833333334,38.31149307941632L226.33686111111112,34.54391643383698L226.5242777777778,33.685046386049294L226.9303472222222,32.71707086262845L227.149,33.1372524659607L227.7424861111111,26.440330400079517L228.36720833333334,29.457545733132747L228.46091666666666,31.430594637852778L228.58586111111111,30.767326106997018L228.6170972222222,28.052100583319685L228.83575,32.465135576966304L229.3667638888889,29.082890017957624L229.71036111111113,32.58232973193273L230.05395833333333,37.39325333721351L230.2726111111111,43.7802089322459L230.46002777777778,40.507671298532955L231.20969444444444,41.88110153466155L231.928125,38.983111870552534L232.67779166666668,43.17082177373058L232.70902777777775,45.09318356865924L232.92768055555555,45.59071536101925L233.05262499999998,41.28746824027104L233.45869444444443,37.365360248181474L233.48993055555556,36.14633792254196L233.80229166666666,37.32018179554376L233.9272361111111,39.99133833508327L234.177125,47.07707057588047L234.20836111111112,47.893921444697924L234.33330555555557,47.947222686286494L234.61443055555557,42.29212768626388L234.64566666666667,38.93453794244948L234.95802777777777,38.10548049144538L234.9892638888889,37.01856833005962L235.0205,37.847260502444186L235.2703888888889,31.702085966529182L235.39533333333335,29.64605302925969L235.8951111111111,32.698657892225356L236.64477777777776,40.34032899481926L236.7697222222222,40.55169530227596L236.83219444444444,41.66762761563763L236.86343055555554,44.505581005702055L236.9571388888889,44.75897181831638L237.2382638888889,43.67366134731941L237.2695,46.24838410274478L237.550625,41.0576424485007L237.64433333333335,40.86323257977929L237.95669444444445,37.36037482979444L238.112875,30.604258964163648L239.237375,27.560897927215336L239.5185,29.327624203293738L239.58097222222221,31.499363754923905L239.70591666666667,30.33815249974589L239.89333333333335,33.89153093258116L239.98704166666667,31.43986110673987L240.20569444444445,32.028357803091694L240.29940277777777,31.976565153594294L240.45558333333332,33.50842738710486L240.54929166666668,39.75799136063682L240.79918055555555,42.05568224501249L240.924125,40.95820658284313L241.04906944444446,38.3161252074116L241.36143055555556,37.22672742203909L241.39266666666668,38.04575674834922L241.76749999999998,37.7967162458105L241.89244444444444,37.35914206725914L242.1110972222222,33.44358526275815L242.23604166666667,28.828144791271967L242.5796388888889,31.7637953816768L242.95447222222222,31.61699364319759L243.45425,27.179234387163888L244.11020833333333,33.89232595067298L244.23515277777778,38.459306201236814L244.70369444444444,34.1238630581916L244.9535833333333,33.889983773552444L245.141,29.726683402254025L245.26594444444444,27.770187860517638L245.3908888888889,29.582905889840475L245.64077777777777,28.66048894655745L245.82819444444445,34.27483107916461L245.85943055555555,35.81490652398165L246.39044444444446,40.354712919210726L246.60909722222223,42.01526961727407L246.67156944444446,42.869446883439025L246.8589861111111,38.432324044716864L247.108875,36.286349242434596L247.20258333333334,31.511924503096793L247.3275277777778,27.982637447462167L247.6398888888889,29.076645403872988L247.88977777777777,28.46039141782211L247.9834861111111,27.126942459696465L248.42079166666667,28.118612115138887L248.5457361111111,29.05223125490795L248.795625,31.71454260187025L248.88933333333333,30.336036714533975L249.07675,34.41102973541456L249.60776388888888,34.304838379474745L249.639,33.257458684811525L249.70147222222224,33.46117824953595L250.26372222222224,38.21972271153052L250.3886666666667,38.11430217994118L250.482375,36.01817568860349L250.95091666666667,26.41541311087437L251.044625,21.176864024923333L251.16956944444445,23.567010177600764L251.38822222222223,28.107906748365878L251.79429166666668,31.932600998045444L251.98170833333333,34.65172025587219L252.41901388888888,35.4540176170992L252.79384722222224,36.487354009569685L253.01250000000002,34.66398990270389L253.26238888888886,25.95321991946787L253.51227777777777,23.377997671458644L253.54351388888887,22.94293765067127L253.69969444444445,28.25778014997445L253.82463888888887,30.762986670265377L254.23070833333333,28.425403800532365L254.35565277777778,31.13893561992728L254.79295833333333,27.866742071114118L255.16779166666666,27.66096371859979L255.1990277777778,29.84261899588182L255.41768055555556,25.576481742953405L255.66756944444447,21.500492665781024L255.85498611111112,22.583344528336283L256.0424027777778,22.4128777439945L256.2610555555556,19.514899355774986L256.32352777777777,18.25456541715235L256.6046527777778,17.17359700924689L256.667125,17.024549921204766L256.6983611111111,18.656597551343168L257.29184722222226,27.32126788350726L257.3855555555556,32.24751505666461L257.66668055555556,37.55020210068247L258.07275,29.53150801990742L258.4163472222222,32.06220542326699L258.51005555555554,27.259645245447217L258.82241666666664,25.68819170440966L259.32219444444445,24.43069873815395L259.6657916666667,25.416630517472953L259.7595,23.51489326527613L260.2280416666667,25.171102962103674L260.5404027777778,24.38415768218468L260.5716388888889,22.86316486011674L260.72781944444444,18.61591817352877L260.75905555555556,14.954235917628239L260.9152361111111,14.908088347548983L260.97770833333334,18.350628174087262L261.1026527777778,20.289877896100165L261.13388888888886,19.901960657427963L261.165125,19.781405004062066L261.63366666666667,21.280641271535643L261.85231944444445,20.30469600788598L261.8835555555556,18.844819743389564L262.0085,18.802288187010817L262.0709722222222,19.78840128384394L262.3520972222222,26.60396837636884L262.47704166666665,34.10405405754156L262.57075000000003,36.709590038569075L263.3828888888889,36.51347484642943L263.414125,33.820660421524025L263.69525,26.258902569359464L263.7889583333333,25.218623918685324L263.91390277777776,28.382144853544418L264.0076111111111,32.48680413288392L264.3199722222222,28.62488061826207L264.3512083333333,26.782285686540916L264.38244444444445,25.600998750507387L264.4136805555556,25.326906682305662L264.5698611111111,23.576936570827712L264.7572777777778,24.672061729879317L264.8822222222222,27.030663575528024L264.94469444444445,29.0109414135205L265.3195277777778,29.38451213523834L265.4444722222222,35.703459895597774L265.6318888888889,39.961292984616534L265.663125,42.552745278740446L265.9130138888889,47.333257147220536L266.1004305555556,46.67705124042382L266.2566111111111,38.43390023472179L266.50649999999996,30.42276783931527L266.7251527777778,25.623051416674002L267.0375138888889,23.415066153883146L267.5997638888889,23.720368505709416L267.84965277777775,15.629608746719498L268.56808333333333,13.601983365138665L268.7867361111111,23.797980888535903L268.97415277777776,28.967055686081153L269.06786111111114,29.576182519599115L270.0361805555556,30.54264542553898L270.06741666666665,32.739189377716855L270.5047222222222,32.05472154965233" fill="none"></path></g></g></g></g><g opacity="0.2"><g><g><g><path style="fill: none;" stroke="rgb(238, 51, 119)" stroke-width="2px" d="M37.76445833333333,177.16064422780818L38.26423611111111,172.19719450040296L38.451652777777774,177.54097252542323L39.41997222222222,188.99095949259672L39.638625,175.67870180173352L39.76356944444445,170.7898215488954L39.82604166666667,163.91427622058174L40.41952777777778,175.26811412247744L40.91930555555555,165.9861087473956L40.98177777777778,174.9827360239896L41.23166666666667,154.26503416624936L41.6065,147.07763977484268L41.887625,174.14971586790952L42.13751388888888,168.82627061280337L42.63729166666667,158.92641757835042L42.762236111111115,168.72407926212657L44.44898611111111,149.98498609932986L44.48022222222222,154.7984336939725L45.01123611111112,159.25298871777272L45.07370833333333,161.8605705499649L45.10494444444444,157.943826881322L45.198652777777774,154.62608469616282L45.66719444444445,132.64712769334966L45.76090277777777,137.79395598715L45.792138888888886,143.82650659301063L46.1045,151.71984132853422L46.63551388888889,145.34446295824918L46.697986111111106,150.7203705961054L47.353944444444444,140.69521207159215L47.447652777777776,153.5543942668221L47.697541666666666,150.41456381841138L47.88495833333334,137.68677735328674L48.04113888888889,139.82104682922363L48.22855555555555,142.5010881315578L48.38473611111111,139.84550369869578L48.69709722222222,157.46562315117228L48.88451388888889,149.4740773005919L49.196875,125.95611184293573L49.38429166666667,128.00377522815356L49.44676388888889,134.78878218477422L49.60294444444444,151.74818252433428L49.63418055555555,146.3284922946583L50.102722222222226,147.2706092704426L50.664972222222225,150.20327564803037L50.727444444444444,157.6731229045174L51.10227777777778,139.09645212780345L51.320930555555556,145.73088149590924L51.35216666666667,147.19843752817673L51.41463888888889,144.42809762737966L51.50834722222223,138.8899114673788L51.570819444444446,140.33814177729866L51.94565277777778,143.75078620693898L52.25801388888889,148.57468791441482L52.35172222222223,145.583516868678L52.632847222222225,141.0260511745106L52.789027777777775,133.33844187042928L53.60116666666667,145.36853619055313L53.726111111111116,141.30538698759943L53.851055555555554,133.18493904850698L53.88229166666667,143.4496789845553L54.100944444444444,149.85526878183538L54.38206944444445,124.06113605065778L54.50701388888889,121.94134887782009L54.63195833333333,127.21827812628311L54.78813888888889,113.1553384065628L54.91308333333333,111.43458184328945L55.194208333333336,121.12588012218475L55.319152777777774,131.60723119432276L55.35038888888889,139.51552777940577L55.381625,135.3190646605058L55.44409722222222,141.4684327840805L55.66275,149.1144174554131L55.81893055555556,144.7433994249864L55.88140277777778,142.56520349329168L56.03758333333333,139.43443647297946L56.10005555555556,141.4077222022143L56.225,134.59974497014827L56.349944444444446,132.52901540019295L56.53736111111111,121.88754376498134L56.56859722222222,118.19681034304878L57.28702777777778,105.1774596300992L57.411972222222225,108.53481235287406L58.44276388888889,130.00751215761358L58.59894444444444,110.10748496922578L58.66141666666667,111.36739738421005L58.84883333333334,109.58732092380522L59.09872222222222,122.46386270089582L59.286138888888885,111.25772510875355L59.41108333333334,99.15478768131949L59.629736111111114,114.30941491777246L59.69220833333334,117.28514456748962L59.879625,129.10380685329437L59.94209722222222,130.2742838534442L60.379402777777784,118.57570000128311L60.41063888888888,121.50165272842753L60.723,110.64050085978073L60.81670833333333,114.87475223974747L61.097833333333334,129.6629580259323L61.22277777777777,114.61833874745801L61.347722222222224,96.7724967761473L61.62884722222223,95.49522477930242L61.66008333333333,94.44372325593774L61.847500000000004,117.66868582638826L61.87873611111112,125.71374906193125L62.03491666666667,122.76487401398745L62.40975,106.1066768061031L62.59716666666667,103.32151891968466L62.690875,102.48682035099375L62.972,95.56423151493071L63.06570833333333,95.88898037780413L63.315597222222216,83.69224366274746L63.909083333333335,99.21827963265504L64.31515277777778,109.90751409530638L64.50256944444445,112.97637166760184L64.59627777777777,116.12502577088094L64.65875,118.88150677897713L64.78369444444445,127.04098979993299L64.97111111111111,108.77981263940984L65.12729166666666,108.44657580419019L65.43965277777778,115.04321691122921L65.62706944444444,119.46372413635254L65.7520138888889,113.41765032031319L65.78325000000001,118.11653426560487L66.09561111111111,101.25472163070332L66.25179166666666,124.31567931175232L67.40752777777777,101.45939205993305L67.53247222222222,110.26520779999818L67.56370833333334,101.45119181546296L67.59494444444444,98.54696254296735L68.15719444444444,110.4799007502469L68.53202777777778,123.56907342780718L68.56326388888888,119.71016306226903L68.75068055555556,119.43087520382619L68.96933333333332,126.13891495357859L69.78147222222222,97.40832742777737L69.84394444444445,95.29841891202058L70.15630555555556,100.99984268708661L70.49990277777778,86.43242009119552L70.59361111111112,92.09806970032777L70.68731944444446,91.53930216485801L71.31204166666666,94.53507685661314L71.49945833333334,109.81093343821438L71.71811111111111,109.01886654983866L71.90552777777778,104.04534634676845L72.2178888888889,96.24101543426512L72.40530555555556,104.90215200727636L72.49901388888888,110.76690930669957L72.84261111111111,121.02416831796819L72.93631944444444,111.78417121280323L73.03002777777778,101.79238912192257L73.06126388888889,103.88249236887151L74.56059722222223,97.19066128947516L74.65430555555555,103.51103568077086L74.74801388888889,96.55324813452633L74.77925,94.13882761651818L75.46644444444443,93.4027717546983L75.84127777777778,114.35549933260137L75.90375,116.1911072731018L76.02869444444444,93.8847639018839L76.15363888888889,83.89705795591527L76.27858333333333,90.04215811599383L77.05948611111111,107.46398510716178L77.09072222222221,116.52952321009201L77.43431944444444,92.00743541934271L77.68420833333333,83.2630495808341L77.80915277777778,91.09821533073077L77.87162500000001,91.94715642929076L78.18398611111111,83.90664888512002L78.40263888888889,94.40190680460495L78.87118055555555,98.40271496772765L78.996125,90.52323912490496L79.74579166666668,110.303044015711L79.77702777777779,109.02783406864512L80.27680555555555,104.43128533796829L80.30804166666667,103.7432800314643L80.77658333333333,86.93824569745496L80.90152777777779,87.37616752494463L81.18265277777779,82.34754743359304L81.40130555555555,74.32665333964606L81.43254166666667,85.44882234660061L81.8386111111111,114.74139036915517L82.11973611111111,86.2929200259122L82.27591666666667,91.79677065936L82.43209722222223,97.79743142561477L82.52580555555556,99.74199232188137L82.68198611111112,97.25669483704999L82.77569444444444,87.79505135796285L83.15052777777777,95.07763572172684L83.40041666666667,75.1229881915179L83.61906944444445,83.89945568821645L83.83772222222223,88.09927563233808L84.11884722222223,83.32241743261163L84.24379166666668,89.36594965241171L84.27502777777777,88.92735645987769L84.30626388888888,88.53264176845549L84.3687361111111,92.25751889835703L84.46244444444444,91.41668213497508L84.68109722222222,83.11175267262891L84.96222222222222,79.29101420532571L85.27458333333334,86.5687551498413L85.39952777777778,96.39600485021417L85.462,95.73552551052786L85.55570833333334,90.18089090694079L85.71188888888888,77.69047993963414L85.80559722222222,77.88085988434875L85.83683333333333,73.56235219131814L85.86806944444444,70.93280713124707L86.46155555555556,71.60326103730634L86.74268055555557,72.01447212696074L86.93009722222223,81.65680871226569L87.14874999999999,78.9461723457683L87.1799861111111,79.54958565668625L87.46111111111111,68.03524355454877L87.67976388888889,96.40708237344568L88.05459722222223,89.95934044231066L88.33572222222223,77.35777060552076L88.46066666666667,85.31172001361846L88.77302777777777,79.48062687570398L88.89797222222222,82.73837779868731L89.17909722222223,86.96893667091021L89.58516666666667,98.73336225206201L89.678875,80.88895892013201L89.86629166666667,94.07581521164286L89.9287638888889,105.547237905589L90.99079166666667,78.80250022628088L91.17820833333333,95.89104242758316L91.70922222222222,88.11864930933172L91.77169444444444,78.3454444950277L91.83416666666666,84.38303033872083L92.02158333333333,82.67311152544887L92.11529166666666,84.15313576568255L92.17776388888889,93.11000864072278L92.7400138888889,81.67565488815306L93.17731944444444,86.66097193414514L93.23979166666666,84.0788060643456L93.80204166666667,76.28866972706533L93.92698611111112,81.44235553524709L94.17687500000001,86.77505603703585L94.30181944444445,73.50504638931966L94.61418055555555,86.8441586819562L94.70788888888889,98.06779971989717L94.89530555555555,91.74018417705187L95.64497222222222,74.30603284185582L96.01980555555555,69.47306770628148L96.05104166666666,71.0237770947543L96.14475,68.52044866301794L96.1759861111111,70.16639597849411L96.23845833333333,69.838242335753L96.30093055555555,72.96665957841003L96.425875,74.67691407420416L96.55081944444444,68.31419573046942L96.707,63.9986612254923L96.76947222222222,71.00219750404356L97.2380138888889,59.62936956232244L98.30004166666667,72.24230465021999L98.42498611111111,70.13743137229571L98.48745833333334,71.82615423202513L98.64363888888889,88.9106682430614L98.92476388888888,80.67110096324572L99.17465277777778,68.95534934780812L99.29959722222222,71.21665068106216L99.61195833333333,88.60769078948279L99.67443055555556,93.8268346894871L99.73690277777779,80.2034952098673L99.76813888888888,83.19538557529448L99.89308333333334,82.26669590039685L99.98679166666668,89.16180672428824L100.23668055555557,92.90869503671472L100.36162499999999,99.73604594577442L100.79893055555556,85.0844629461115L100.98634722222222,79.24680002169174L101.14252777777777,84.23796753449872L101.17376388888889,88.08349855379623L101.23623611111111,93.52793338082053L101.32994444444445,66.52198674462056L101.39241666666668,69.90331679040735L101.45488888888889,68.74521208893167L101.486125,71.62579972093755L101.70477777777776,70.97845995426177L101.7984861111111,85.00572141734035L101.95466666666667,69.00944218852301L102.54815277777777,72.95260886712506L102.86051388888889,87.5601695017381L103.04793055555557,97.07355604388495L103.23534722222223,98.85569455406882L103.36029166666665,97.52332266894253L103.39152777777777,105.06869849291714L103.735125,90.00854190913113L103.76636111111111,88.2486064000563L104.23490277777778,80.47156168114053L104.54726388888889,70.70794779604131L104.82838888888888,73.18375026095995L105.35940277777777,83.93614099242468L105.92165277777778,79.30966856262899L105.95288888888889,77.36251811547712L106.01536111111112,87.98672607812014L106.32772222222222,86.0231751420281L106.45266666666666,77.71201157569884L107.04615277777778,51.10663009773599L107.38975,53.89807004278356L107.63963888888888,69.41830350052224L107.82705555555555,74.87141811847685L107.85829166666666,74.62517101114446L107.92076388888889,74.20412921905516L107.98323611111111,80.27427626739846L108.13941666666666,85.32461981339887L108.92031944444444,90.99276306412436L108.95155555555556,86.62021048502487L109.26391666666666,73.49018044905227L109.32638888888889,69.51349347287957L109.48256944444444,70.95170126178046L109.919875,73.8273975198919L110.10729166666667,70.71101689338683L110.32594444444445,87.40004893866451L110.38841666666667,93.98000182888724L110.4508888888889,92.6471503973007L110.85695833333332,95.02028196508233L110.98190277777778,79.84119785915719L111.044375,87.22880289771338L111.45044444444444,63.12862008268182L111.82527777777779,72.40208953077142L112.20011111111111,66.4620913917368L112.23134722222221,64.54256282069464L112.26258333333332,69.10050806132229L112.51247222222221,68.0023466673764L112.69988888888889,64.58898291804572L113.23090277777779,54.41410998864605L113.41831944444445,69.15090839429334L113.44955555555556,74.50514053214678L113.69944444444444,84.57806188409978L113.8868611111111,92.69165230881083L114.07427777777778,94.5764137614857L114.23045833333333,101.46246115727857L114.9488888888889,77.1437969749624L115.0113611111111,62.03894666108215L115.16754166666666,61.12128655477001L115.32372222222222,70.12059929154134L115.72979166666667,70.89319659363137L115.94844444444445,67.92734560099514L116.4169861111111,65.74660807306115L116.79181944444444,76.85885046828875L116.88552777777778,82.70528909293087L117.32283333333334,68.56619739532469L117.35406944444445,68.95050592855972L117.41654166666667,71.99615345217963L118.41609722222222,59.092565254731596L118.44733333333333,56.65292059291491L118.47856944444445,63.256946715441586L118.69722222222222,48.32056107304311L119.04081944444445,65.81307321245019L119.5093611111111,63.833169742064015L119.60306944444444,68.67140988870099L119.66554166666667,64.60456817800348L120.602625,40.35308845476669L120.97745833333333,50.55510371381584L121.00869444444444,53.99762388792904L121.28981944444445,49.990102074362994L121.57094444444445,61.448960651050896L121.75836111111111,59.743885257027344L121.88330555555557,63.15787241675635L122.41431944444444,60.66634082794188L122.47679166666666,56.23480403423308L122.50802777777777,56.59513524445617L122.53926388888888,51.89102424274789L122.88286111111111,51.49343227256426L123.44511111111112,63.80521218343212L123.976125,70.93280713124707L124.19477777777777,87.83715553717178L124.22601388888889,88.80857280167665L124.94444444444444,84.99876799366689L125.16309722222223,96.73010486906225L125.22556944444443,94.49762427806853L125.28804166666666,85.64951254021035L125.35051388888888,82.00241784615949L125.47545833333334,87.27292117205532L125.50669444444443,82.01522173664785L125.85029166666666,62.577381426637814L125.944,58.83054106885736L126.19388888888889,79.06030440330504L126.28759722222223,77.66012464870104L126.56872222222223,79.36337776617569L127.03726388888889,66.13767821138555L127.16220833333333,64.76195532625371L127.22468055555555,67.45264256000517L127.69322222222223,58.942515167322995L128.09929166666666,72.88460917906326L128.81772222222222,55.692053350535275L129.2862638888889,62.83297968994485L129.3175,63.790586016394855L129.53615277777777,74.52686398679559L129.69233333333332,70.6143882816488L129.8485138888889,58.410602233626605L129.97345833333333,68.93444112214172L130.03593055555555,73.86878237941046L130.53570833333333,57.468964804302544L130.87930555555556,66.87627566944467L131.09795833333334,69.56883313439107L131.12919444444444,72.36708263917401L131.3478472222222,75.0825144702738L131.44155555555557,67.55708777904509L132.19122222222222,78.74845534021203L132.28493055555555,69.17359094186261L132.50358333333332,74.72760213505136L132.59729166666668,64.57047242468053L132.62852777777778,66.61142215945502L132.691,84.43247157877141L132.7222361111111,80.71593855727801L133.34695833333333,72.13124169002877L133.50313888888888,65.22649198228662L133.7842638888889,59.47366082668303L133.8467361111111,59.668596462769926L134.53393055555557,59.888084877621026L134.78381944444445,60.192021424120114L135.221125,50.587712873112054L135.2523611111111,54.02697213129562L135.40854166666668,61.57071749730541L135.56472222222223,65.91584001887927L135.783375,66.66872796145351L136.6892222222222,59.329892797903554L136.75169444444444,59.42647345499557L136.81416666666667,59.127572146329L137.06405555555557,53.89169207486236L137.59506944444445,56.96846216375177L137.75125,47.13128585165197L138.43844444444446,74.14461750333959L138.53215277777778,66.63448834419249L138.68833333333333,49.91956079006194L138.9069861111111,64.28260068459942L139.03193055555556,64.50904252312398L139.09440277777776,58.467428489164845L139.28181944444444,66.18218012289566L139.31305555555556,63.033573974262566L139.50047222222221,55.395501819523886L139.719125,71.18567197973077L139.90654166666667,59.424555269154624L140.00025,57.57552002776751L140.5312638888889,73.8986101692373L140.5937361111111,65.31870876659045L140.90609722222223,66.00235020030627L140.99980555555555,58.38571377234024L141.21845833333333,52.598690954121665L141.7182361111111,44.49445168538526L141.78070833333334,48.79257865385574L141.96812500000001,70.11024108800018L142.09306944444447,60.97224351492794L142.15554166666666,52.45986225388265L142.59284722222222,77.50830023938958L143.1238611111111,90.4466555552049L143.49869444444445,89.19470361146058L143.74858333333333,83.16977779431775L144.31083333333333,52.083082600073354L144.37330555555556,47.01959948106244L144.4357777777778,49.45507208867504L144.5294861111111,60.82972230694509L144.62319444444447,57.0285013805736L145.15420833333332,58.31119225241919L145.49780555555554,72.26618606393987L145.52904166666667,65.9949651848186L145.71645833333332,58.14387849244201L145.9351111111111,50.042180819944875L146.87219444444446,51.81995545734057L146.93466666666666,57.61757625233041L147.68433333333334,68.99078783121975L147.8092777777778,75.24882118268445L147.84051388888886,67.42223931442605L147.87175000000002,69.17805072394283L148.05916666666664,66.94101444157684L148.152875,61.785362492908106L148.21534722222222,65.18668962608682L148.49647222222222,62.54328567331487L148.715125,48.53698039054868L149.12119444444446,70.14323388446459L149.37108333333333,67.85128953240132L149.7771527777778,69.38847571069543L149.839625,64.17969001423226L149.93333333333334,58.65354047038336L150.30816666666666,69.90643384239888L150.43311111111112,65.56390087171032L150.58929166666667,58.084846323186696L150.6517638888889,55.023805358193115L150.964125,69.3200444308194L151.08906944444442,63.26092695106158L151.49513888888887,34.708778663115055L151.99491666666665,44.410914692011715L152.15109722222223,59.24021760983898L152.36975,64.32163576646282L153.1506527777778,51.340313087810145L153.1818888888889,48.41877218809992L153.4317777777778,52.11454084786499L153.74413888888887,45.59990218552673L153.99402777777777,61.36350547183642L154.21268055555555,71.6418165727095L154.337625,75.66190250353378L154.6812222222222,44.22878294641319L154.86863888888888,56.48364069245076L155.05605555555556,47.1866734678095L155.74325000000002,52.35987681692296L156.08684722222222,47.56877608732742L156.2430277777778,57.72489875013177L156.5241527777778,55.46225468678905L156.5553888888889,54.642709786241696L156.8989861111111,62.12689548188989L156.9302222222222,55.61249659278174L157.27381944444443,53.60242965004659L157.36752777777778,64.97194872119208L157.58618055555556,53.37867327169937L157.67988888888888,53.507527405565426L157.711125,56.65479082410985L157.7423611111111,54.45889962803231L159.14798611111112,55.79534765807064L159.30416666666667,53.910634160041795L159.3354027777778,63.30307908491653L159.64776388888887,46.89937718348068L161.45945833333334,58.008982073176966L161.928,68.5716642249714L162.27159722222223,71.25688462907617L162.30283333333335,70.11498859795654L162.36530555555558,69.04233907569537L162.42777777777775,62.642264062708065L162.52148611111113,72.14025716348127L162.5527222222222,68.395814538002L162.61519444444443,79.96942858262494L163.33362499999998,66.17848761515182L163.48980555555556,57.7867602435025L163.5835138888889,60.970037601210834L163.83340277777776,50.78039464083584L164.177,63.67818032611498L164.458125,45.18988996202293L164.55183333333335,53.01886956258251L164.58306944444445,49.92948740178886L165.05161111111113,49.07862811738792L165.55138888888888,55.42317165027963L165.73880555555556,60.97727875276043L165.86374999999998,64.29267116026443L166.14487499999998,59.4323718764565L166.2073472222222,54.22962846539235L166.4884722222222,56.66231970353557L166.61341666666667,55.01651625199749L166.80083333333334,57.36317685517395L166.9570138888889,55.64500984278591L167.64420833333335,69.08832758123224L167.76915277777778,57.86046653444116L168.05027777777778,41.77878008105537L168.51881944444443,49.67825301126999L168.7374722222222,67.7775832414627L168.9248888888889,62.487946011803345L169.04983333333334,66.20524630763312L169.08106944444444,63.05433833599089L169.67455555555554,61.16996052048421L169.70579166666667,58.52257633209227L169.7682638888889,50.09852752902289L169.95568055555555,51.40802504799581L170.0493888888889,62.42944134365426L170.8927638888889,37.67645193230021L171.08018055555556,39.404737374999286L171.205125,41.69375649365509L171.2988333333333,40.941348097541095L171.5487222222222,39.85997082970357L171.61119444444444,41.14160669933665L172.14220833333331,55.1062393947081L172.17344444444444,50.551027568903805L172.76693055555555,44.79738118431783L172.79816666666667,50.07277588410808L172.891875,51.91461792859161L173.173,50.415315920656354L173.4228888888889,45.29011517221275L173.48536111111113,44.28292374177411L173.51659722222223,50.866856867616804L173.9851388888889,55.477983810684876L174.29749999999999,79.59432734142648L174.3912083333333,81.63211206956342L174.73480555555554,60.27085886218329L174.8285138888889,69.6195691498843L174.8909861111111,58.961361343210385L174.95345833333332,57.745135610753834L175.32829166666667,50.1534835533662L175.85930555555555,27.168054439804763L176.32784722222223,55.52800050648773L176.5152638888889,44.82222169095817L176.7339166666667,45.119636405598015L176.98380555555556,44.539624961939694L177.10875000000001,45.84092223644254L177.32740277777776,46.98152349211952L177.3586388888889,48.267187552018584L177.389875,54.45266552404922L177.7022361111111,60.499986160885186L178.514375,39.91885913502085L178.67055555555555,43.42410398613322L179.17033333333333,43.525528062473626L179.32651388888888,38.781998341733754L179.51393055555556,42.45393354242498L179.638875,61.21455834128638L179.6701111111111,66.10530882531945L179.92000000000002,58.46057097478344L180.01370833333334,60.908080198548035L180.04494444444447,59.54396233775397L180.1074166666667,53.31431813673538L180.201125,56.74163668805902L180.48225,48.188206250017316L180.57595833333332,45.550077308307976L180.60719444444445,41.9504577138207L180.73213888888887,36.37453124739906L180.82584722222222,40.332084319808246L180.85708333333332,39.7684733650901L181.0445,48.35091636397621L181.23191666666668,42.862219398671925L181.29438888888888,44.830517844720305L181.38809722222223,37.93559883941302L182.01281944444446,37.3157370849089L182.4813611111111,58.71051058985968L182.85619444444447,63.18156201189214L183.44968055555555,51.8743360259316L183.51215277777777,52.256055008281336L184.01193055555555,55.32855713367461L184.10563888888888,50.717669963836656L184.1681111111111,47.42213077978653L184.19934722222223,52.4350217472423L184.79283333333333,52.58013250611043L185.54250000000002,35.80924188007006L185.63620833333334,44.018118186430485L186.04227777777777,50.99010030789806L186.29216666666665,60.91795885562895L186.54205555555555,49.80403804779051L186.57329166666665,45.779012788425774L186.667,44.25889846411616L186.72947222222223,47.218946944583536L186.76070833333333,42.195362091064425L187.19801388888888,30.34926974773404L187.44790277777778,35.955024003982516L188.13509722222224,33.753713932904304L188.3225138888889,39.92029777440155L188.41622222222225,31.67842867157674L188.63487500000002,34.13610428029838L189.04094444444442,55.78930537267162L189.10341666666665,51.781591740521506L189.13465277777777,52.587229793721974L189.35330555555555,52.99820111014624L189.91555555555556,50.61945884877983L190.41533333333334,66.66340499574487L190.6339861111111,59.65948508002539L190.79016666666666,57.01094998012887L190.8214027777778,53.52234539118679L191.00881944444444,42.780408772555234L191.4148888888889,44.81848122856832L191.47736111111112,40.38104601339859L191.6647777777778,35.20338288220489L192.47691666666665,46.44567827744916L192.6330972222222,59.03171080892736L193.03916666666666,34.30020507899195L193.1641111111111,41.50001972371879L193.72636111111112,47.18274118683553L193.97625,48.330823367292226L194.69468055555558,44.1979960636659L194.78838888888887,35.60145439884877L194.81962499999997,34.25378498164088L194.94456944444443,41.34128984537989L194.97580555555555,38.16256817904383L195.10074999999998,40.590895544398904L195.66299999999998,52.35781476714392L195.78794444444443,45.842648603699416L196.506375,33.07544341954315L196.91244444444445,50.94003565744919L197.41222222222223,45.09863227063957L197.75581944444443,70.20010809464887L198.2555972222222,47.256111795252L198.34930555555556,53.64515723965383L198.69290277777776,35.22203723950818L198.7241388888889,33.912347901951165L198.8178472222222,37.644610047340365L199.34886111111112,47.58508066697553L199.47380555555557,50.771858713843585L200.09852777777778,46.64430642127988L200.161,47.64262624220413L200.59830555555558,32.27695060860026L200.7544861111111,39.033088868314564L201.19179166666666,44.68977095864034L201.22302777777776,52.49012163552368L201.28549999999998,54.76619299975307L201.44168055555554,48.50897487727076L202.31629166666667,27.4107529033314L202.59741666666667,19.286948139017255L202.81606944444445,31.880125912752987L202.9410138888889,39.96120308745989L203.12843055555555,48.589107090776594L203.31584722222223,42.181503198363544L203.47202777777775,47.23223038153213L203.56573611111114,46.462270584973396L203.62820833333336,43.09527897834775L204.09675,43.506058476187945L204.377875,40.7709652402184L204.6277638888889,51.40677822719918L205.15877777777777,46.88887511600146L205.31495833333332,52.93945666876705L205.37743055555555,49.85036223584953L205.7522638888889,35.88208498738027L205.81473611111113,41.942257469350636L206.00215277777778,44.20140084353358L206.37698611111114,37.94221658056432L206.53316666666666,37.8126431270079L206.84552777777776,31.493179873986662L207.1578888888889,43.60220754146573L207.22036111111112,39.52150693806732L207.68890277777777,36.215225913307876L208.0325,35.41865128820589L208.09497222222222,35.0299309275367L208.21991666666668,31.973493608561398L208.59475,37.87829303741452L208.68845833333333,56.61412528428161L209.9691388888889,53.02083570306951L210.06284722222222,55.17001907391979L210.18779166666667,61.71074506369503L210.62509722222222,56.81673366373235L210.96869444444445,36.32911819761446L211.18734722222223,33.1260355710983L211.406,38.171823425726444L211.7183611111111,22.06189168583262L211.81206944444446,34.9768451343883L211.96825,35.795526851307244L212.12443055555556,43.283500963991315L212.31184722222224,46.281625433401615L212.68668055555554,40.25089710408989L212.71791666666667,43.466735666448415L213.24893055555555,40.05572169477287L213.34263888888887,39.74722945690152L213.56129166666668,41.704018787904204L213.936125,36.76646456935188L214.40466666666669,47.017921068451614L214.46713888888888,46.56239988587117L214.6857916666667,36.761381376873345L214.9981527777778,36.72191470319572L215.2480416666667,39.13916454531929L215.31051388888886,38.54639716581863L215.3729861111111,31.655026804317117L215.52916666666667,41.13738669048655L215.81029166666667,18.588344855742008L216.12265277777777,31.55273954434827L216.15388888888887,35.63837947628713L216.46625,25.59926614978096L216.59119444444445,32.45116983760485L216.62243055555555,32.67564553564242L217.21591666666666,51.307943701744065L217.37209722222224,46.323106202212216L217.43456944444446,47.759539669210255L217.46580555555556,42.68186197497627L217.5595138888889,41.90048897266385L217.8406388888889,40.99553684754804L218.40288888888887,54.56089916012502L219.0276111111111,43.150426821275175L219.18379166666665,47.69667112827298L219.46491666666665,44.32771338116038L219.65233333333333,47.27232046560806L219.68356944444446,47.2717929645018L219.71480555555556,44.757099281657815L219.80851388888888,38.73692097447133L219.90222222222224,27.182776516134055L220.3395277777778,29.609617287462385L220.58941666666666,50.201006607575835L221.12043055555554,41.662969610907794L221.15166666666664,39.7091534679586L221.2766111111111,53.096795862371266L221.43279166666665,48.5070087367838L221.65144444444442,44.442852486263604L221.93256944444443,50.005543470382676L221.99504166666665,48.22810451550916L222.30740277777778,34.445603565736235L222.49481944444443,36.541845007376224L222.55729166666666,37.44823577187276L222.74470833333334,35.22525020079178L222.80718055555556,44.8043825626373L222.8696527777778,46.65509621663526L223.24448611111112,50.06519905003631L223.30695833333334,50.162115389650495L223.36943055555557,46.3435828360644L224.0878611111111,30.45122132518074L224.21280555555555,32.940547000278116L224.3689861111111,33.40776911648834L224.46269444444442,34.008305148644865L224.9624722222222,51.25423449819738L225.27483333333333,36.08440563895485L225.30606944444443,33.431362802332075L225.36854166666666,30.27748164263636L225.55595833333334,29.566026514226706L225.74337500000001,25.21673193844879L225.9620277777778,38.253490187905044L226.11820833333334,46.24681036038831L226.33686111111112,28.89255146546796L226.5242777777778,32.3967413143678L226.9303472222222,31.265107577497275L227.149,33.767524870959164L227.7424861111111,16.39494730125773L228.36720833333334,33.98336873271248L228.46091666666666,34.39016799493268L228.58586111111111,29.77242331071332L228.6170972222222,23.979262297803672L228.83575,39.08468806743619L229.3667638888889,24.00952167944473L229.71036111111113,37.83148930289528L230.05395833333333,44.609638745134504L230.2726111111111,53.3606423247944L230.46002777777778,35.59886484796348L231.20969444444444,43.941246888854266L231.928125,34.636127374388934L232.67779166666668,49.452386628497706L232.70902777777775,47.97672626105219L232.92768055555555,46.33701304955915L233.05262499999998,34.83259755914858L233.45869444444443,31.4821982600472L233.48993055555556,34.31780443408272L233.80229166666666,39.08094760504633L233.9272361111111,43.99807314439252L234.177125,57.7056689370762L234.20836111111112,49.11919774792409L234.33330555555557,48.02717454866928L234.61443055555557,33.809485186230035L234.64566666666667,33.89815332672811L234.95802777777777,36.86189431493929L234.9892638888889,35.38820008798078L235.0205,39.09029876102099L235.2703888888889,22.484324162656577L235.39533333333335,26.56200362335551L235.8951111111111,37.27756518667394L236.64477777777776,51.80283564871007L236.7697222222222,40.868744763460995L236.83219444444444,43.34152608568016L236.86343055555554,48.762511090798796L236.9571388888889,45.139058037237675L237.2382638888889,42.04569564082405L237.2695,50.110468235882834L237.550625,33.271529967134626L237.64433333333335,40.57161777669731L237.95669444444445,32.106088204817326L238.112875,20.470085165717364L239.237375,22.995856371792854L239.5185,31.977713617411496L239.58097222222221,34.756973082369L239.70591666666667,28.596335616978706L239.89333333333335,39.22159858183426L239.98704166666667,27.762356367978157L240.20569444444445,32.911102847619475L240.29940277777777,31.89887617934832L240.45558333333332,35.80622073737055L240.54929166666668,49.132337320934624L240.79918055555555,45.50221857157618L240.924125,39.31199308958918L241.04906944444446,34.35300314426419L241.36143055555556,35.59263074398038L241.39266666666668,39.27430073781446L241.76749999999998,37.42315549200231L241.89244444444444,36.70278079943222L242.1110972222222,27.57025005600667L242.23604166666667,21.90498408404261L242.5796388888889,36.167271267284036L242.95447222222222,31.396791035478742L243.45425,20.52259550311348L244.11020833333333,43.961963295936556L244.23515277777778,45.309776577082516L244.70369444444444,27.620698343623758L244.9535833333333,33.53916484659365L245.141,23.481732845306368L245.26594444444444,24.835444547913283L245.3908888888889,32.30198293382469L245.64077777777777,27.27686353163284L245.82819444444445,42.69634427807546L245.85943055555555,38.12501969120717L246.39044444444446,47.164422512054415L246.60909722222223,44.50610466436905L246.67156944444446,44.150712782686384L246.8589861111111,31.776639786633552L247.108875,33.06738703901115L247.20258333333334,24.350287394090117L247.3275277777778,22.688706864010186L247.6398888888889,30.717657338489175L247.88977777777777,27.53601043874565L247.9834861111111,25.126769022508086L248.42079166666667,29.606116598302634L248.5457361111111,30.452659964561434L248.795625,35.70800962231374L248.88933333333333,28.268277883529635L249.07675,40.523519266735406L249.60776388888888,34.14555134556508L249.639,31.686389142816694L249.70147222222224,33.766757596622796L250.26372222222224,45.35753940452227L250.3886666666667,37.956171382557244L250.482375,32.87398595159701L250.95091666666667,12.011269244280697L251.044625,13.31904039599678L251.16956944444445,27.152229406616897L251.38822222222223,34.919251604513676L251.79429166666668,37.66964237256482L251.98170833333333,38.7303991426121L252.41901388888888,36.65746365893969L252.79384722222224,38.0373585982756L253.01250000000002,31.928943742405266L253.26238888888886,12.887064944614053L253.51227777777777,19.515164299444706L253.54351388888887,22.290347619490177L253.69969444444445,36.23004389892924L253.82463888888887,34.520796450701596L254.23070833333333,24.91902949593282L254.35565277777778,35.2092333490198L254.79295833333333,22.95845174789426L255.16779166666666,27.352296189828337L255.1990277777778,33.115101911804885L255.41768055555556,19.177275863560737L255.66756944444447,15.386509050022454L255.85498611111112,24.207622322169186L256.0424027777778,22.157177567481966L256.2610555555556,15.167931773445815L256.32352777777777,16.364064509218366L256.6046527777778,15.552144397388787L256.667125,16.800979289141537L256.6983611111111,21.1046689965508L257.29184722222226,40.318273381753386L257.3855555555556,39.63688581640068L257.66668055555556,45.504232666709186L258.07275,17.503466898744733L258.4163472222222,35.858251528306425L258.51005555555554,20.055804978717447L258.82241666666664,23.33101139285347L259.32219444444445,22.54445928877047L259.6657916666667,26.895528186451287L259.7595,20.662287386980893L260.2280416666667,27.655417507344993L260.5404027777778,23.203739762306185L260.5716388888889,20.581675627014846L260.72781944444444,12.245048143646926L260.75905555555556,9.461712533777387L260.9152361111111,14.83886699243024L260.97770833333334,23.514437913894625L261.1026527777778,23.19875247911972L261.13388888888886,19.320084799419732L261.165125,19.600571524013162L261.63366666666667,23.529495672746123L261.85231944444445,18.84077811241147L261.8835555555556,16.655005346644998L262.0085,18.738490852442624L262.0709722222222,21.26757092909375L262.3520972222222,36.82731901515612L262.47704166666665,45.35418257930061L262.57075000000003,40.61789401011032L263.3828888888889,36.21930205821988L263.414125,29.7814387841658L263.69525,14.916265791112693L263.7889583333333,23.6582059426741L263.91390277777776,33.127426255833L264.0076111111111,38.643793051893056L264.3199722222222,22.83199534632942L264.3512083333333,24.018393288959146L264.38244444444445,23.829068346457035L264.4136805555556,24.915768580003203L264.5698611111111,20.951981403610915L264.7572777777778,26.314749468456597L264.8822222222222,30.568566344001056L264.94469444444445,31.98135817050931L265.3195277777778,29.944868217815042L265.4444722222222,45.181881536136956L265.6318888888889,46.34804261814463L265.663125,46.4399237199263L265.9130138888889,54.50402494994076L266.1004305555556,45.69274238022888L266.2566111111111,26.069173726168515L266.50649999999996,18.40606924620539L266.7251527777778,18.423476782712044L267.0375138888889,20.103088259696932L267.5997638888889,24.178322033448637L267.84965277777775,3.493469108234734L268.56808333333333,10.560545292767586L268.7867361111111,39.09197717363182L268.97415277777776,36.72066788239911L269.06786111111114,30.489872769875944L270.0361805555556,31.992339784448774L270.06741666666665,36.03400530598378L270.5047222222222,31.028019807555438" fill="none"></path></g></g></g></g></g></g><g transform="translate(48, 177)" clip-path="url(#clip_1)"><clipPath id="clip_1"><rect width="281" height="23"></rect></clipPath><g><g><line x1="0" y1="0" x2="0" y2="5" style="visibility: inherit;" fill="rgb(0, 0, 0)" stroke="rgb(204, 204, 204)" stroke-width="1px"></line><line x1="31.23611111111111" y1="0" x2="31.23611111111111" y2="5" style="visibility: inherit;" fill="rgb(0, 0, 0)" stroke="rgb(204, 204, 204)" stroke-width="1px"></line><line x1="62.47222222222222" y1="0" x2="62.47222222222222" y2="5" style="visibility: inherit;" fill="rgb(0, 0, 0)" stroke="rgb(204, 204, 204)" stroke-width="1px"></line><line x1="93.70833333333333" y1="0" x2="93.70833333333333" y2="5" style="visibility: inherit;" fill="rgb(0, 0, 0)" stroke="rgb(204, 204, 204)" stroke-width="1px"></line><line x1="124.94444444444444" y1="0" x2="124.94444444444444" y2="5" style="visibility: inherit;" fill="rgb(0, 0, 0)" stroke="rgb(204, 204, 204)" stroke-width="1px"></line><line x1="156.18055555555557" y1="0" x2="156.18055555555557" y2="5" style="visibility: inherit;" fill="rgb(0, 0, 0)" stroke="rgb(204, 204, 204)" stroke-width="1px"></line><line x1="187.41666666666666" y1="0" x2="187.41666666666666" y2="5" style="visibility: inherit;" fill="rgb(0, 0, 0)" stroke="rgb(204, 204, 204)" stroke-width="1px"></line><line x1="218.65277777777777" y1="0" x2="218.65277777777777" y2="5" style="visibility: inherit;" fill="rgb(0, 0, 0)" stroke="rgb(204, 204, 204)" stroke-width="1px"></line><line x1="249.88888888888889" y1="0" x2="249.88888888888889" y2="5" style="visibility: inherit;" fill="rgb(0, 0, 0)" stroke="rgb(204, 204, 204)" stroke-width="1px"></line><line x1="281.125" y1="0" x2="281.125" y2="5" style="visibility: inherit;" fill="rgb(0, 0, 0)" stroke="rgb(204, 204, 204)" stroke-width="1px"></line></g><g transform="translate(0, 8)"><text x="0" y="0" dx="0em" dy="0.95em" style="text-anchor: middle; visibility: hidden; font-family: &quot;Helvetica Neue&quot;, sans-serif; font-size: 12px; font-weight: 200;" fill="rgb(50, 49, 63)" stroke="none" stroke-width="1px">-1k</text><text x="31.23611111111111" y="0" dx="0em" dy="0.95em" style="text-anchor: middle; visibility: inherit; font-family: &quot;Helvetica Neue&quot;, sans-serif; font-size: 12px; font-weight: 200;" fill="rgb(50, 49, 63)" stroke="none" stroke-width="1px">0</text><text x="62.47222222222222" y="0" dx="0em" dy="0.95em" style="text-anchor: middle; visibility: inherit; font-family: &quot;Helvetica Neue&quot;, sans-serif; font-size: 12px; font-weight: 200;" fill="rgb(50, 49, 63)" stroke="none" stroke-width="1px">1k</text><text x="93.70833333333333" y="0" dx="0em" dy="0.95em" style="text-anchor: middle; visibility: inherit; font-family: &quot;Helvetica Neue&quot;, sans-serif; font-size: 12px; font-weight: 200;" fill="rgb(50, 49, 63)" stroke="none" stroke-width="1px">2k</text><text x="124.94444444444444" y="0" dx="0em" dy="0.95em" style="text-anchor: middle; visibility: inherit; font-family: &quot;Helvetica Neue&quot;, sans-serif; font-size: 12px; font-weight: 200;" fill="rgb(50, 49, 63)" stroke="none" stroke-width="1px">3k</text><text x="156.18055555555557" y="0" dx="0em" dy="0.95em" style="text-anchor: middle; visibility: inherit; font-family: &quot;Helvetica Neue&quot;, sans-serif; font-size: 12px; font-weight: 200;" fill="rgb(50, 49, 63)" stroke="none" stroke-width="1px">4k</text><text x="187.41666666666666" y="0" dx="0em" dy="0.95em" style="text-anchor: middle; visibility: inherit; font-family: &quot;Helvetica Neue&quot;, sans-serif; font-size: 12px; font-weight: 200;" fill="rgb(50, 49, 63)" stroke="none" stroke-width="1px">5k</text><text x="218.65277777777777" y="0" dx="0em" dy="0.95em" style="text-anchor: middle; visibility: inherit; font-family: &quot;Helvetica Neue&quot;, sans-serif; font-size: 12px; font-weight: 200;" fill="rgb(50, 49, 63)" stroke="none" stroke-width="1px">6k</text><text x="249.88888888888889" y="0" dx="0em" dy="0.95em" style="text-anchor: middle; visibility: inherit; font-family: &quot;Helvetica Neue&quot;, sans-serif; font-size: 12px; font-weight: 200;" fill="rgb(50, 49, 63)" stroke="none" stroke-width="1px">7k</text><text x="281.125" y="0" dx="0em" dy="0.95em" style="text-anchor: middle; visibility: hidden; font-family: &quot;Helvetica Neue&quot;, sans-serif; font-size: 12px; font-weight: 200;" fill="rgb(50, 49, 63)" stroke="none" stroke-width="1px">8k</text></g><line x1="0" y1="0" x2="281.125" y2="0" fill="rgb(0, 0, 0)" stroke="rgb(204, 204, 204)" stroke-width="1px"></line></g></g></g></g></svg>