<svg viewBox="0 0 330 200" xmlns="http://www.w3.org/2000/svg"><g><g><g><g><g><line x1="48.875" y1="177" x2="43.875" y2="177" style="visibility: inherit;" fill="rgb(0, 0, 0)" stroke="rgb(204, 204, 204)" stroke-width="1px"></line><line x1="48.875" y1="165.2" x2="43.875" y2="165.2" style="visibility: inherit;" fill="rgb(0, 0, 0)" stroke="rgb(204, 204, 204)" stroke-width="1px"></line><line x1="48.875" y1="153.39999999999998" x2="43.875" y2="153.39999999999998" style="visibility: inherit;" fill="rgb(0, 0, 0)" stroke="rgb(204, 204, 204)" stroke-width="1px"></line><line x1="48.875" y1="141.60000000000002" x2="43.875" y2="141.60000000000002" style="visibility: inherit;" fill="rgb(0, 0, 0)" stroke="rgb(204, 204, 204)" stroke-width="1px"></line><line x1="48.875" y1="129.8" x2="43.875" y2="129.8" style="visibility: inherit;" fill="rgb(0, 0, 0)" stroke="rgb(204, 204, 204)" stroke-width="1px"></line><line x1="48.875" y1="118" x2="43.875" y2="118" style="visibility: inherit;" fill="rgb(0, 0, 0)" stroke="rgb(204, 204, 204)" stroke-width="1px"></line><line x1="48.875" y1="106.20000000000002" x2="43.875" y2="106.20000000000002" style="visibility: inherit;" fill="rgb(0, 0, 0)" stroke="rgb(204, 204, 204)" stroke-width="1px"></line><line x1="48.875" y1="94.4" x2="43.875" y2="94.4" style="visibility: inherit;" fill="rgb(0, 0, 0)" stroke="rgb(204, 204, 204)" stroke-width="1px"></line><line x1="48.875" y1="82.6" x2="43.875" y2="82.6" style="visibility: inherit;" fill="rgb(0, 0, 0)" stroke="rgb(204, 204, 204)" stroke-width="1px"></line><line x1="48.875" y1="70.79999999999998" x2="43.875" y2="70.79999999999998" style="visibility: inherit;" fill="rgb(0, 0, 0)" stroke="rgb(204, 204, 204)" stroke-width="1px"></line><line x1="48.875" y1="58.999999999999986" x2="43.875" y2="58.999999999999986" style="visibility: inherit;" fill="rgb(0, 0, 0)" stroke="rgb(204, 204, 204)" stroke-width="1px"></line><line x1="48.875" y1="47.20000000000002" x2="43.875" y2="47.20000000000002" style="visibility: inherit;" fill="rgb(0, 0, 0)" stroke="rgb(204, 204, 204)" stroke-width="1px"></line><line x1="48.875" y1="35.400000000000034" x2="43.875" y2="35.400000000000034" style="visibility: inherit;" fill="rgb(0, 0, 0)" stroke="rgb(204, 204, 204)" stroke-width="1px"></line><line x1="48.875" y1="23.600000000000023" x2="43.875" y2="23.600000000000023" style="visibility: inherit;" fill="rgb(0, 0, 0)" stroke="rgb(204, 204, 204)" stroke-width="1px"></line><line x1="48.875" y1="11.800000000000011" x2="43.875" y2="11.800000000000011" style="visibility: inherit;" fill="rgb(0, 0, 0)" stroke="rgb(204, 204, 204)" stroke-width="1px"></line><line x1="48.875" y1="0" x2="43.875" y2="0" style="visibility: inherit;" fill="rgb(0, 0, 0)" stroke="rgb(204, 204, 204)" stroke-width="1px"></line></g><g transform="translate(38.875, 0)"><text x="0" y="177" dx="0em" dy="0.3em" style="text-anchor: end; visibility: hidden; font-family: &quot;Helvetica Neue&quot;, sans-serif; font-size: 12px; font-weight: 200;" fill="rgb(50, 49, 63)" stroke="none" stroke-width="1px">0.36</text><text x="0" y="165.2" dx="0em" dy="0.3em" style="text-anchor: end; visibility: inherit; font-family: &quot;Helvetica Neue&quot;, sans-serif; font-size: 12px; font-weight: 200;" fill="rgb(50, 49, 63)" stroke="none" stroke-width="1px">0.38</text><text x="0" y="153.39999999999998" dx="0em" dy="0.3em" style="text-anchor: end; visibility: hidden; font-family: &quot;Helvetica Neue&quot;, sans-serif; font-size: 12px; font-weight: 200;" fill="rgb(50, 49, 63)" stroke="none" stroke-width="1px">0.4</text><text x="0" y="141.60000000000002" dx="0em" dy="0.3em" style="text-anchor: end; visibility: hidden; font-family: &quot;Helvetica Neue&quot;, sans-serif; font-size: 12px; font-weight: 200;" fill="rgb(50, 49, 63)" stroke="none" stroke-width="1px">0.42</text><text x="0" y="129.8" dx="0em" dy="0.3em" style="text-anchor: end; visibility: inherit; font-family: &quot;Helvetica Neue&quot;, sans-serif; font-size: 12px; font-weight: 200;" fill="rgb(50, 49, 63)" stroke="none" stroke-width="1px">0.44</text><text x="0" y="118" dx="0em" dy="0.3em" style="text-anchor: end; visibility: hidden; font-family: &quot;Helvetica Neue&quot;, sans-serif; font-size: 12px; font-weight: 200;" fill="rgb(50, 49, 63)" stroke="none" stroke-width="1px">0.46</text><text x="0" y="106.20000000000002" dx="0em" dy="0.3em" style="text-anchor: end; visibility: hidden; font-family: &quot;Helvetica Neue&quot;, sans-serif; font-size: 12px; font-weight: 200;" fill="rgb(50, 49, 63)" stroke="none" stroke-width="1px">0.48</text><text x="0" y="94.4" dx="0em" dy="0.3em" style="text-anchor: end; visibility: inherit; font-family: &quot;Helvetica Neue&quot;, sans-serif; font-size: 12px; font-weight: 200;" fill="rgb(50, 49, 63)" stroke="none" stroke-width="1px">0.5</text><text x="0" y="82.6" dx="0em" dy="0.3em" style="text-anchor: end; visibility: hidden; font-family: &quot;Helvetica Neue&quot;, sans-serif; font-size: 12px; font-weight: 200;" fill="rgb(50, 49, 63)" stroke="none" stroke-width="1px">0.52</text><text x="0" y="70.79999999999998" dx="0em" dy="0.3em" style="text-anchor: end; visibility: hidden; font-family: &quot;Helvetica Neue&quot;, sans-serif; font-size: 12px; font-weight: 200;" fill="rgb(50, 49, 63)" stroke="none" stroke-width="1px">0.54</text><text x="0" y="58.999999999999986" dx="0em" dy="0.3em" style="text-anchor: end; visibility: inherit; font-family: &quot;Helvetica Neue&quot;, sans-serif; font-size: 12px; font-weight: 200;" fill="rgb(50, 49, 63)" stroke="none" stroke-width="1px">0.56</text><text x="0" y="47.20000000000002" dx="0em" dy="0.3em" style="text-anchor: end; visibility: hidden; font-family: &quot;Helvetica Neue&quot;, sans-serif; font-size: 12px; font-weight: 200;" fill="rgb(50, 49, 63)" stroke="none" stroke-width="1px">0.58</text><text x="0" y="35.400000000000034" dx="0em" dy="0.3em" style="text-anchor: end; visibility: hidden; font-family: &quot;Helvetica Neue&quot;, sans-serif; font-size: 12px; font-weight: 200;" fill="rgb(50, 49, 63)" stroke="none" stroke-width="1px">0.6</text><text x="0" y="23.600000000000023" dx="0em" dy="0.3em" style="text-anchor: end; visibility: inherit; font-family: &quot;Helvetica Neue&quot;, sans-serif; font-size: 12px; font-weight: 200;" fill="rgb(50, 49, 63)" stroke="none" stroke-width="1px">0.62</text><text x="0" y="11.800000000000011" dx="0em" dy="0.3em" style="text-anchor: end; visibility: hidden; font-family: &quot;Helvetica Neue&quot;, sans-serif; font-size: 12px; font-weight: 200;" fill="rgb(50, 49, 63)" stroke="none" stroke-width="1px">0.64</text><text x="0" y="0" dx="0em" dy="0.3em" style="text-anchor: end; visibility: hidden; font-family: &quot;Helvetica Neue&quot;, sans-serif; font-size: 12px; font-weight: 200;" fill="rgb(50, 49, 63)" stroke="none" stroke-width="1px">0.66</text></g><line x1="48.875" y1="0" x2="48.875" y2="177" fill="rgb(0, 0, 0)" stroke="rgb(204, 204, 204)" stroke-width="1px"></line></g></g><g transform="translate(48, 0)" clip-path="url(#clip_0)"><clipPath id="clip_0"><rect width="281" height="177"></rect></clipPath><g><g><g><line x1="0" y1="0" x2="0" y2="177" fill="rgb(0, 0, 0)" stroke="rgb(60, 60, 60)" stroke-width="1px" opacity="0.25"></line><line x1="31.23611111111111" y1="0" x2="31.23611111111111" y2="177" fill="rgb(0, 0, 0)" stroke="rgb(60, 60, 60)" stroke-width="1px" opacity="0.25"></line><line x1="62.47222222222222" y1="0" x2="62.47222222222222" y2="177" fill="rgb(0, 0, 0)" stroke="rgb(60, 60, 60)" stroke-width="1px" opacity="0.25"></line><line x1="93.70833333333333" y1="0" x2="93.70833333333333" y2="177" fill="rgb(0, 0, 0)" stroke="rgb(60, 60, 60)" stroke-width="1px" opacity="0.25"></line><line x1="124.94444444444444" y1="0" x2="124.94444444444444" y2="177" fill="rgb(0, 0, 0)" stroke="rgb(60, 60, 60)" stroke-width="1px" opacity="0.25"></line><line x1="156.18055555555557" y1="0" x2="156.18055555555557" y2="177" fill="rgb(0, 0, 0)" stroke="rgb(60, 60, 60)" stroke-width="1px" opacity="0.25"></line><line x1="187.41666666666666" y1="0" x2="187.41666666666666" y2="177" fill="rgb(0, 0, 0)" stroke="rgb(60, 60, 60)" stroke-width="1px" opacity="0.25"></line><line x1="218.65277777777777" y1="0" x2="218.65277777777777" y2="177" fill="rgb(0, 0, 0)" stroke="rgb(60, 60, 60)" stroke-width="1px" opacity="0.25"></line><line x1="249.88888888888889" y1="0" x2="249.88888888888889" y2="177" fill="rgb(0, 0, 0)" stroke="rgb(60, 60, 60)" stroke-width="1px" opacity="0.25"></line><line x1="281.125" y1="0" x2="281.125" y2="177" fill="rgb(0, 0, 0)" stroke="rgb(60, 60, 60)" stroke-width="1px" opacity="0.25"></line></g><g><line x1="0" y1="177" x2="281.125" y2="177" fill="rgb(0, 0, 0)" stroke="rgb(60, 60, 60)" stroke-width="1px" opacity="0.25"></line><line x1="0" y1="165.2" x2="281.125" y2="165.2" fill="rgb(0, 0, 0)" stroke="rgb(60, 60, 60)" stroke-width="1px" opacity="0.25"></line><line x1="0" y1="153.39999999999998" x2="281.125" y2="153.39999999999998" fill="rgb(0, 0, 0)" stroke="rgb(60, 60, 60)" stroke-width="1px" opacity="0.25"></line><line x1="0" y1="141.60000000000002" x2="281.125" y2="141.60000000000002" fill="rgb(0, 0, 0)" stroke="rgb(60, 60, 60)" stroke-width="1px" opacity="0.25"></line><line x1="0" y1="129.8" x2="281.125" y2="129.8" fill="rgb(0, 0, 0)" stroke="rgb(60, 60, 60)" stroke-width="1px" opacity="0.25"></line><line x1="0" y1="118" x2="281.125" y2="118" fill="rgb(0, 0, 0)" stroke="rgb(60, 60, 60)" stroke-width="1px" opacity="0.25"></line><line x1="0" y1="106.20000000000002" x2="281.125" y2="106.20000000000002" fill="rgb(0, 0, 0)" stroke="rgb(60, 60, 60)" stroke-width="1px" opacity="0.25"></line><line x1="0" y1="94.4" x2="281.125" y2="94.4" fill="rgb(0, 0, 0)" stroke="rgb(60, 60, 60)" stroke-width="1px" opacity="0.25"></line><line x1="0" y1="82.6" x2="281.125" y2="82.6" fill="rgb(0, 0, 0)" stroke="rgb(60, 60, 60)" stroke-width="1px" opacity="0.25"></line><line x1="0" y1="70.79999999999998" x2="281.125" y2="70.79999999999998" fill="rgb(0, 0, 0)" stroke="rgb(60, 60, 60)" stroke-width="1px" opacity="0.25"></line><line x1="0" y1="58.999999999999986" x2="281.125" y2="58.999999999999986" fill="rgb(0, 0, 0)" stroke="rgb(60, 60, 60)" stroke-width="1px" opacity="0.25"></line><line x1="0" y1="47.20000000000002" x2="281.125" y2="47.20000000000002" fill="rgb(0, 0, 0)" stroke="rgb(60, 60, 60)" stroke-width="1px" opacity="0.25"></line><line x1="0" y1="35.400000000000034" x2="281.125" y2="35.400000000000034" fill="rgb(0, 0, 0)" stroke="rgb(60, 60, 60)" stroke-width="1px" opacity="0.25"></line><line x1="0" y1="23.600000000000023" x2="281.125" y2="23.600000000000023" fill="rgb(0, 0, 0)" stroke="rgb(60, 60, 60)" stroke-width="1px" opacity="0.25"></line><line x1="0" y1="11.800000000000011" x2="281.125" y2="11.800000000000011" fill="rgb(0, 0, 0)" stroke="rgb(60, 60, 60)" stroke-width="1px" opacity="0.25"></line><line x1="0" y1="0" x2="281.125" y2="0" fill="rgb(0, 0, 0)" stroke="rgb(60, 60, 60)" stroke-width="1px" opacity="0.25"></line></g></g></g><g><g><line x1="0" y1="389.4" x2="281.125" y2="389.4" fill="rgb(0, 0, 0)" stroke="rgb(153, 153, 153)" stroke-width="1.5px"></line></g></g><g><g><line x1="31.23611111111111" y1="0" x2="31.23611111111111" y2="177" fill="rgb(0, 0, 0)" stroke="rgb(153, 153, 153)" stroke-width="1.5px"></line></g></g><g><g><g><g><g><path stroke="rgb(238, 51, 119)" stroke-width="2px" d="M35.64040277777777,-3.3553147048882295L36.14018055555556,0.7484392910292286L36.233888888888885,1.8317156470628504L36.51501388888889,1.919401824754857L36.85861111111112,0.42191819139708286L37.01479166666666,-2.5776202787670286L37.233444444444444,-0.40921484801594943L37.76445833333333,2.027710816297798L38.26423611111111,7.256424365644648L38.451652777777774,6.66831128066309L38.60783333333333,6.636784007858466L39.076375000000006,5.865172357401832L39.26379166666666,7.989311182567576L39.41997222222222,6.789011439607918L39.638625,7.361659779765432L39.76356944444445,7.081657977838063L39.82604166666667,8.025108828260187L40.41952777777778,10.212675556699736L40.91930555555555,13.110785439458681L40.98177777777778,13.932657471340576L41.23166666666667,17.09587876789857L41.6065,21.274529391504927L41.887625,17.199926671235204L42.13751388888888,13.816184941089006L42.63729166666667,16.639062620970236L42.762236111111115,17.970009133128627L44.44898611111111,20.858015955869803L44.48022222222222,21.708599065322716L45.01123611111112,17.401527494089578L45.07370833333333,15.676168886253976L45.10494444444444,16.345260562581927L45.198652777777774,16.690505050478066L45.66719444444445,23.27016050756359L45.76090277777777,27.87032494990001L45.792138888888886,30.207888195811904L46.1045,26.812684014965697L46.63551388888889,28.728612596711628L46.697986111111106,29.12230989391915L47.353944444444444,29.217594043346168L47.447652777777776,25.897744650798955L47.697541666666666,24.687408787701997L47.88495833333334,27.63286816996046L48.04113888888889,28.938277897368266L48.22855555555555,29.541624756533253L48.38473611111111,30.8191356586685L48.69709722222222,26.74325237794335L48.88451388888889,27.005322287819467L49.196875,32.01795168300967L49.38429166666667,32.882355625513156L49.44676388888889,33.96456610624966L49.60294444444444,31.461770850807312L49.63418055555555,30.438783368104623L50.102722222222226,32.69140375651955L50.664972222222225,33.2396973049523L50.727444444444444,33.0060759208132L51.10227777777778,35.59301347622451L51.320930555555556,38.243588046366966L51.35216666666667,38.05040231474348L51.41463888888889,37.53035469489163L51.50834722222223,38.27970054886856L51.570819444444446,40.20321648563217L51.94565277777778,37.44028569963734L52.25801388888889,29.49578311030362L52.35172222222223,27.024752304460378L52.632847222222225,25.62408639282333L52.789027777777775,27.123695819916406L53.60116666666667,29.39724315723302L53.726111111111116,31.94350857210472L53.851055555555554,34.388388277723266L53.88229166666667,32.46981400110354L54.100944444444444,29.436672088253687L54.38206944444445,30.854588730781245L54.50701388888889,34.8994774816328L54.63195833333333,38.000866613262474L54.78813888888889,43.38672975151155L54.91308333333333,46.504208928635194L55.194208333333336,46.67287939923432L55.319152777777774,45.639518235548906L55.35038888888889,42.48800262834109L55.381625,40.88450400010032L55.44409722222222,39.019618329854495L55.66275,37.32703299132095L55.81893055555556,35.35602958445011L55.88140277777778,33.96030302670155L56.03758333333333,34.40504644767378L56.10005555555556,34.866603708600564L56.225,38.062447853288404L56.349944444444446,40.07344160282693L56.53736111111111,41.04921743514586L56.56859722222222,42.22245983387501L57.28702777777778,46.562069497737156L57.411972222222225,47.56718341006808L58.44276388888889,45.53833070453385L58.59894444444444,47.856233028509536L58.66141666666667,50.326832487546426L58.84883333333334,50.26127885005654L59.09872222222222,46.22361488236058L59.286138888888885,45.598374537784224L59.41108333333334,49.366674153899154L59.629736111111114,51.99849423461856L59.69220833333334,53.36627637322968L59.879625,50.96149442539354L59.94209722222222,46.555405375634024L60.379402777777784,46.54526253537793L60.41063888888888,46.101055512407214L60.723,47.2169780645244L60.81670833333333,45.20904851397714L61.097833333333334,41.824543679003966L61.22277777777777,45.0183383347065L61.347722222222224,47.77685856112666L61.62884722222223,53.341921430163566L61.66008333333333,55.34007947285956L61.847500000000004,50.856099380493106L61.87873611111112,45.47012440528863L62.03491666666667,44.63720651725765L62.40975,45.602248989700286L62.59716666666667,47.47503071973264L62.690875,50.76858610838373L62.972,55.024987057028525L63.06570833333333,56.065841919886054L63.315597222222216,60.196943058196894L63.909083333333335,62.08874117709648L64.31515277777778,58.18725355254085L64.50256944444445,54.461551006951765L64.59627777777777,51.412638373564974L64.65875,49.11636088096576L64.78369444444445,46.48480162264988L64.97111111111111,48.16018215919786L65.12729166666666,47.66376253190785L65.43965277777778,46.115662800211624L65.62706944444444,46.75874219115906L65.7520138888889,48.649473115064694L65.78325000000001,48.451204741154925L66.09561111111111,54.120900189968836L66.25179166666666,46.588660461958L67.40752777777777,55.664412736449094L67.53247222222222,61.91484485599605L67.56370833333334,66.8073901899648L67.59494444444444,70.06881460714294L68.15719444444444,63.397439162540195L68.53202777777778,58.70790592229831L68.56326388888888,56.06640453932563L68.75068055555556,51.653211578118075L68.96933333333332,47.810329962007586L69.78147222222222,56.041133155961305L69.84394444444445,61.56262336167069L70.15630555555556,65.27202951665147L70.49990277777778,65.54238837573183L70.59361111111112,63.2329445076779L70.68731944444446,63.2472661228654L71.31204166666666,66.87375707934359L71.49945833333334,65.06310775941648L71.71811111111111,62.10881565014142L71.90552777777778,60.71388897657171L72.2178888888889,64.8848174748407L72.40530555555556,63.99417799100789L72.49901388888888,64.12475516191432L72.84261111111111,57.68484766120501L72.93631944444444,54.64661822578185L73.03002777777778,55.145810767775004L73.06126388888889,54.53774305627658L74.56059722222223,55.69210561541264L74.65430555555555,55.36668821589677L74.74801388888889,59.12631753692942L74.77925,61.16508820778081L75.46644444444443,65.74816692308156L75.84127777777778,63.284573018762885L75.90375,61.99951021445598L76.02869444444444,65.77518040044791L76.15363888888889,70.21681294264606L76.27858333333333,69.09462992562177L77.05948611111111,63.238811646779325L77.09072222222221,57.543463570404015L77.43431944444444,59.12358920486449L77.68420833333333,65.87167288250733L77.80915277777778,69.07766072146296L77.87162500000001,71.34051400299194L78.18398611111111,71.56332492515635L78.40263888888889,67.980956085236L78.87118055555555,67.68703047258322L78.996125,69.2328044499318L79.74579166666668,67.33057003530025L79.77702777777779,67.44714369125462L80.27680555555555,66.42361325828608L80.30804166666667,65.69109561686739L80.77658333333333,71.38970043805259L80.90152777777779,73.12101452438245L81.18265277777779,74.85925537638789L81.40130555555555,80.92111267979698L81.43254166666667,81.60491013488624L81.8386111111111,71.41404810882482L82.11973611111111,74.4906117018275L82.27591666666667,74.12561688758211L82.43209722222223,70.42334029398728L82.52580555555556,68.84929556204297L82.68198611111112,66.9902662047948L82.77569444444444,68.95100997502836L83.15052777777777,67.15218119749566L83.40041666666667,71.76763114052503L83.61906944444445,69.85270534943035L83.83772222222223,71.141733387652L84.11884722222223,75.29186062547144L84.24379166666668,75.80953296501981L84.27502777777777,76.99013339328496L84.30626388888888,77.3456165101989L84.3687361111111,74.2879634539404L84.46244444444444,72.3445938587259L84.68109722222222,72.24080459595149L84.96222222222222,75.2250398273493L85.27458333333334,75.0591848632828L85.39952777777778,74.5932344496927L85.462,74.71156883601437L85.55570833333334,75.5423117277866L85.71188888888888,80.51979045616653L85.80559722222222,84.26732815591735L85.83683333333333,87.8188629084125L85.86806944444444,91.09740813334554L86.46155555555556,93.44700873708592L86.74268055555557,92.7267125988952L86.93009722222223,86.92422198682736L87.14874999999999,83.67215543407028L87.1799861111111,82.4787728251089L87.46111111111111,85.62395289069829L87.67976388888889,81.05876586512575L88.05459722222223,79.97862352893264L88.33572222222223,83.21656141022152L88.46066666666667,81.38999816739143L88.77302777777777,81.90839647390591L88.89797222222222,82.24018383466094L89.17909722222223,80.80729442860418L89.58516666666667,74.45924234167178L89.678875,76.69139595851567L89.86629166666667,76.79435213580882L89.9287638888889,72.00816560849641L90.99079166666667,75.84972817102131L91.17820833333333,72.98630833625234L91.70922222222222,77.2889008617367L91.77169444444444,84.89851252174171L91.83416666666666,86.57400952300901L92.02158333333333,85.1720880754082L92.11529166666666,82.72295710130263L92.17776388888889,81.6069605248197L92.7400138888889,81.91384449345014L93.17731944444444,82.43923292363966L93.23979166666666,81.89304964187913L93.80204166666667,81.61545931126581L93.92698611111112,79.51571905866808L94.17687500000001,77.65090850505561L94.30181944444445,78.41124838062125L94.61418055555555,76.69909922521116L94.70788888888889,74.75737601423744L94.89530555555555,78.33470363321595L95.64497222222222,84.47540891470132L96.01980555555555,88.54528065861233L96.05104166666666,90.71223496163468L96.14475,93.83196282604088L96.1759861111111,94.79533010613174L96.23845833333333,95.63285991842302L96.30093055555555,97.12106637295936L96.425875,96.32466443620238L96.55081944444444,96.85093921328853L96.707,97.59379710856241L96.76947222222222,96.9273285132835L97.2380138888889,97.81540109051404L98.30004166666667,96.24531575997555L98.42498611111111,96.21055943107538L98.48745833333334,96.07648982963522L98.64363888888889,91.4425037858579L98.92476388888888,89.00265280709823L99.17465277777778,91.11342731658316L99.29959722222222,91.94642677988827L99.61195833333333,87.96485839299092L99.67443055555556,83.58739292390186L99.73690277777779,83.71189521173855L99.76813888888888,83.71579890263213L99.89308333333334,84.8068330670126L99.98679166666668,83.80804003147654L100.23668055555557,80.93686617892011L100.36162499999999,79.07291817117347L100.79893055555556,81.61231237082845L100.98634722222222,85.42458629029491L101.14252777777777,84.72467671047148L101.17376388888889,83.13736398107109L101.23623611111111,78.94801855496344L101.32994444444445,84.66870356805192L101.39241666666668,85.37227398638167L101.45488888888889,87.46344380428935L101.486125,88.06764539748754L101.70477777777776,88.44621645373302L101.7984861111111,85.66670124865887L101.95466666666667,87.60805622778723L102.54815277777777,89.09664236093994L102.86051388888889,88.61573102584741L103.04793055555557,84.45996811456239L103.23534722222223,79.8572374109433L103.36029166666665,79.21771483922042L103.39152777777777,77.37553810420061L103.735125,77.8090301569845L103.76636111111111,78.85527083733952L104.23490277777778,80.53564018642474L104.54726388888889,87.19180207392913L104.82838888888888,90.78033615673385L105.35940277777777,89.0339503951359L105.92165277777778,89.0265339867764L105.95288888888889,88.03031172850689L106.01536111111112,85.47237019597864L106.32772222222222,83.70706619298089L106.45266666666666,84.24467887327451L107.04615277777778,93.26674549249037L107.38975,98.68413513938918L107.63963888888888,98.65313224578102L107.82705555555555,98.23837014546514L107.85829166666666,97.79739698237493L107.92076388888889,96.36100102702568L107.98323611111111,95.27366024756307L108.13941666666666,91.62489476265834L108.92031944444444,90.37062063254312L108.95155555555556,91.19107852004412L109.26391666666666,92.00270945562386L109.32638888888889,92.85165224274071L109.48256944444444,95.03676232934042L109.919875,94.62791454100633L110.10729166666667,94.25894554200188L110.32594444444445,91.81722055281644L110.38841666666667,88.31736762526891L110.4508888888889,84.97944593908346L110.85695833333332,79.09107757855631L110.98190277777778,77.72607204228147L111.044375,75.51995181148949L111.45044444444444,80.65892782631931L111.82527777777779,82.20340280785214L112.20011111111111,89.84499401243957L112.23134722222221,94.94433968062661L112.26258333333332,96.4091635369984L112.51247222222221,98.61620716951654L112.69988888888889,102.1803648132227L113.23090277777779,108.53172940123926L113.41831944444445,103.35259296720535L113.44955555555556,98.97633731261082L113.69944444444444,95.83623517450805L113.8868611111111,92.74655956326197L114.07427777777778,89.1961699718134L114.23045833333333,82.98562372648104L114.9488888888889,83.67985371663202L115.0113611111111,88.0363959402682L115.16754166666666,92.71045926158676L115.32372222222222,92.39537527886057L115.72979166666667,93.18599994377509L115.94844444444445,95.47640631792675L116.4169861111111,97.28568382142623L116.79181944444444,92.30878560947563L116.88552777777778,89.95978361849299L117.32283333333334,93.10145800163936L117.35406944444445,95.99489704639075L117.41654166666667,96.73248527926418L118.41609722222222,98.40564203311334L118.44733333333333,100.20815166025952L118.47856944444445,99.96891423338413L118.69722222222222,105.20082608386133L119.04081944444445,102.49362216665895L119.5093611111111,99.85635702535241L119.60306944444444,97.30087796643217L119.66554166666667,97.45140219566132L120.602625,108.43045083544796L120.97745833333333,107.27523988164751L121.00869444444444,106.52522759006791L121.28981944444445,103.96034167984948L121.57094444444445,100.71590059029953L121.75836111111111,98.4432050861591L121.88330555555557,97.28120573983632L122.41431944444444,97.1437903060081L122.47679166666666,99.61974954447523L122.50802777777777,101.26900516415466L122.53926388888888,104.93359401264684L122.88286111111111,106.82822535061177L123.44511111111112,104.55777604117L123.976125,102.61054992874863L124.19477777777777,97.09853101849798L124.22601388888889,94.37147242236286L124.94444444444444,91.13737311368077L125.16309722222223,85.35012226107648L125.22556944444443,82.76504267694318L125.28804166666666,81.37436932946302L125.35051388888888,80.43837564125693L125.47545833333334,75.72085844597241L125.50669444444443,74.93618028593669L125.85029166666666,83.22222232122786L125.944,91.76438999712207L126.19388888888889,88.32141276681267L126.28759722222223,89.45529340555572L126.56872222222223,95.22553622991026L127.03726388888889,98.49293554943907L127.16220833333333,100.57687370015448L127.22468055555555,100.87812143345633L127.69322222222223,101.19576012718652L128.09929166666666,96.44315861003383L128.81772222222222,99.98315277061928L129.2862638888889,100.90189363933841L129.3175,101.97852222905898L129.53615277777777,101.94653386107886L129.69233333333332,101.69118211169125L129.8485138888889,103.41330782830168L129.97345833333333,101.88162671243816L130.03593055555555,100.70079462716383L130.53570833333333,106.79790364855171L130.87930555555556,106.3621274754622L131.09795833333334,104.95307959826104L131.12919444444444,103.64633357114383L131.3478472222222,103.42080412618391L131.44155555555557,103.19560027070088L132.19122222222222,96.82335411040334L132.28493055555555,95.7900511987707L132.50358333333332,94.3957259611905L132.59729166666668,97.51527658203962L132.62852777777778,100.11481781422927L132.691,98.0787363125076L132.7222361111111,97.46426228482666L133.34695833333333,95.80874946951354L133.50313888888888,98.11355453037909L133.7842638888889,102.69540824236685L133.8467361111111,106.34635042752156L134.53393055555557,105.83536453965503L134.78381944444445,106.77250808193205L135.221125,110.34904102870176L135.2523611111111,112.15193034403535L135.40854166666668,111.2067796158374L135.56472222222223,108.25315460727099L135.783375,105.26561705330303L136.6892222222222,107.22554045712526L136.75169444444444,106.87154435751181L136.81416666666667,107.80218532822931L137.06405555555557,108.17890556301118L137.59506944444445,106.54245789793399L137.75125,108.70102141825716L138.43844444444446,101.0202640064261L138.53215277777778,100.21277153061044L138.68833333333333,104.12181869248278L138.9069861111111,104.65255175053909L139.03193055555556,104.66334590685273L139.09440277777776,106.47021884305418L139.28181944444444,105.34554777254549L139.31305555555556,104.92972707337073L139.50047222222221,105.81869457474906L139.719125,103.45247886128162L139.90654166666667,105.40700520960651L140.00025,109.05562834434605L140.5312638888889,103.87812267597259L140.5937361111111,102.87708719048345L140.90609722222223,103.34323490305806L140.99980555555555,105.13081005957164L141.21845833333333,107.88822182027364L141.7182361111111,112.00844818119923L141.78070833333334,116.54297265627812L141.96812500000001,110.09693488370675L142.09306944444447,108.96659282738747L142.15554166666666,108.06112605032197L142.59284722222222,97.44393229065459L143.1238611111111,93.22930908905342L143.49869444444445,93.27669583741951L143.74858333333333,92.1299960886486L144.31083333333333,101.98919205874486L144.37330555555556,108.26293915873936L144.4357777777778,111.64884252528053L144.5294861111111,111.51370540129963L144.62319444444447,112.3595410374869L145.15420833333332,108.45031785655434L145.49780555555554,102.57459884457835L145.52904166666667,101.38406316741138L145.71645833333332,105.22913075628178L145.9351111111111,111.85890220846115L146.87219444444446,114.46736517456395L146.93466666666666,114.77270701233881L147.68433333333334,111.55260157766543L147.8092777777778,108.36762472261549L147.84051388888886,108.24049965065457L147.87175000000002,108.40515897942622L148.05916666666664,109.61899344845439L148.152875,112.47238508655923L148.21534722222222,111.33351572390971L148.49647222222222,108.37977307818281L148.715125,114.43137466539116L149.12119444444446,109.96868921058876L149.37108333333333,110.77100976906718L149.7771527777778,108.83092585922779L149.839625,112.25481990171373L149.93333333333334,117.5310768174702L150.30816666666666,106.06056723878227L150.43311111111112,106.04180345228579L150.58929166666667,107.9511415415482L150.6517638888889,109.8092506893561L150.964125,108.94369415808235L151.08906944444442,110.25688501577686L151.49513888888887,116.59155806291766L151.99491666666665,117.01304913752475L152.15109722222223,111.39906241174461L152.36975,109.43360528514337L153.1506527777778,109.70565535286397L153.1818888888889,110.2595667794903L153.4317777777778,114.5276415893769L153.74413888888887,118.90074817593909L153.99402777777777,114.07531183872233L154.21268055555555,111.74908306308754L154.337625,108.43157486741643L154.6812222222222,113.47177349463047L154.86863888888888,112.45856097063387L155.05605555555556,114.57237036419491L155.74325000000002,118.19590623970377L156.08684722222222,120.86746130821436L156.2430277777778,119.13875362895328L156.5241527777778,121.46296300424575L156.5553888888889,122.21486568172838L156.8989861111111,117.69503379654924L156.9302222222222,117.26442924971604L157.27381944444443,117.20577844044699L157.36752777777778,113.11534231699189L157.58618055555556,115.70883016226695L157.67988888888888,116.5933014275909L157.711125,115.57593020691161L157.7423611111111,114.91708990629724L159.14798611111112,115.2631076472772L159.30416666666667,115.61803176747401L159.3354027777778,111.78178928105018L159.64776388888887,113.42510499601352L161.45945833333334,114.10778128889075L161.928,108.76134422652048L162.27159722222223,98.79195874233321L162.30283333333335,93.53578917324111L162.36530555555558,93.14194508635737L162.42777777777775,97.1153295626863L162.52148611111113,96.94244281951332L162.5527222222222,99.15565739931905L162.61519444444443,94.38395722187897L163.33362499999998,96.83809199975337L163.48980555555556,104.7010096350098L163.5835138888889,108.06763998262788L163.83340277777776,111.5560617041153L164.177,108.29149700114502L164.458125,114.54848240917548L164.55183333333335,117.66112680855765L164.58306944444445,119.78825102581604L165.05161111111113,122.06420345267071L165.55138888888888,123.55789437747248L165.73880555555556,122.50359974179418L165.86374999999998,119.11658801718804L166.14487499999998,117.23483133127837L166.2073472222222,117.3501172626647L166.4884722222222,119.76360923794701L166.61341666666667,118.34280877320644L166.80083333333334,114.46212047701286L166.9570138888889,112.63305411318066L167.64420833333335,109.10934833991006L167.76915277777778,110.20239490215464L168.05027777777778,115.18320440974526L168.51881944444443,119.37571490601712L168.7374722222222,117.57650128839025L168.9248888888889,118.57177563570504L169.04983333333334,116.31857746638397L169.08106944444444,113.41800675033058L169.67455555555554,114.14999167226867L169.70579166666667,114.13693131031461L169.7682638888889,117.1456066526286L169.95568055555555,118.5774536083527L170.0493888888889,115.42959304513857L170.8927638888889,122.47332724012333L171.08018055555556,124.70668264435172L171.205125,125.89395969990755L171.2988333333333,127.48202700307289L171.5487222222222,128.78851819330646L171.61119444444444,129.89610868629333L172.14220833333331,126.00170302114795L172.17344444444444,125.36146801305958L172.76693055555555,125.15492608066288L172.79816666666667,122.26975769708088L172.891875,117.16583569353537L173.173,118.39127875033446L173.4228888888889,117.92168985762257L173.48536111111113,116.95900996063983L173.51659722222223,116.35001922330162L173.9851388888889,115.98940745759549L174.29749999999999,101.41050754409159L174.3912083333333,93.8746336699791L174.73480555555554,96.93116913803023L174.8285138888889,100.20172209839582L174.8909861111111,104.39925892889832L174.95345833333332,109.09411695802413L175.32829166666667,115.33614569189669L175.85930555555555,124.44110473920418L176.32784722222223,120.51990582066483L176.5152638888889,121.59334132145466L176.7339166666667,126.45978874367847L176.98380555555556,126.9388814449452L177.10875000000001,128.36230718136684L177.32740277777776,128.68646314526114L177.3586388888889,129.2940885566742L177.389875,126.91920285839265L177.7022361111111,124.44351736914176L178.514375,127.38206092006597L178.67055555555555,127.08728566817419L179.17033333333333,124.7611770430325L179.32651388888888,126.9308707451295L179.51393055555556,131.392896860568L179.638875,124.05163568599714L179.6701111111111,118.67143096890268L179.92000000000002,116.93947007635961L180.01370833333334,114.28886909472783L180.04494444444447,113.27121997349164L180.1074166666667,115.38511041446151L180.201125,116.92173174168838L180.48225,120.83385510889394L180.57595833333332,124.25874355583011L180.60719444444445,126.8440121695317L180.73213888888887,130.04956450730072L180.82584722222222,128.038743426022L180.85708333333332,126.58077341652933L181.0445,124.90198125801697L181.23191666666668,126.76933379150756L181.29438888888888,128.83229835496738L181.38809722222223,133.17866221229073L182.01281944444446,136.30421934580704L182.4813611111111,131.9561870077604L182.85619444444447,125.5230900847527L183.44968055555555,124.61317285082418L183.51215277777777,125.66966537107038L184.01193055555555,121.93175831478241L184.10563888888888,119.8983194866264L184.1681111111111,122.00789240589646L184.19934722222223,118.96194058174436L184.79283333333333,119.84082996317471L185.54250000000002,122.88321149986223L185.63620833333334,123.37855693245673L186.04227777777777,123.05062614765612L186.29216666666665,115.91864886574056L186.54205555555555,115.61525943453375L186.57329166666665,116.26357581719913L186.667,119.44329969945645L186.72947222222223,121.09279915370402L186.76070833333333,123.3870864288679L187.19801388888888,127.99817601064868L187.44790277777778,130.42502058041111L188.13509722222224,132.2833293324233L188.3225138888889,132.80269550117976L188.41622222222225,133.19120376368238L188.63487500000002,131.93434316313193L189.04094444444442,126.63668394086318L189.10341666666665,123.22916699408029L189.13465277777777,120.25804838275039L189.35330555555555,119.8746899505563L189.91555555555556,124.66290544868156L190.41533333333334,122.30822845101738L190.6339861111111,124.45040694117776L190.79016666666666,127.37553914094107L190.8214027777778,129.31952715697372L191.00881944444444,132.8213009976297L191.4148888888889,132.13087164777218L191.47736111111112,132.7749711574179L191.6647777777778,132.73874774343147L192.47691666666665,129.11591837624533L192.6330972222222,124.27719373357189L193.03916666666666,130.26111471922337L193.1641111111111,132.68816560430014L193.72636111111112,131.80495686246562L193.97625,128.26039796181684L194.69468055555558,130.20234195416072L194.78838888888887,132.69846397414744L194.81962499999997,133.25620054826106L194.94456944444443,132.10224843755344L194.97580555555555,132.812664379686L195.10074999999998,133.39661567569368L195.66299999999998,126.08090430951472L195.78794444444443,127.20816142592642L196.506375,131.40454464455732L196.91244444444445,129.5950016671436L197.41222222222223,132.8226735266457L197.75581944444443,127.03173006966173L198.2555972222222,120.50181428786789L198.34930555555556,116.59128500101968L198.69290277777776,120.76731464074851L198.7241388888889,122.61185397152187L198.8178472222222,121.90349549677418L199.34886111111112,121.01724751130608L199.47380555555557,119.4706850584499L200.09852777777778,121.8843756613822L200.161,122.62644890890664L200.59830555555558,124.4850652548441L200.7544861111111,125.84560044364744L201.19179166666666,125.54456871364482L201.22302777777776,123.96760501393061L201.28549999999998,120.5333095760845L201.44168055555554,122.05121541808266L202.31629166666667,131.50961498254668L202.59741666666667,136.37807739635784L202.81606944444445,140.09953578985022L202.9410138888889,137.79230023787193L203.12843055555555,134.33453492501837L203.31584722222223,132.1022162066666L203.47202777777775,129.6588565937738L203.56573611111114,129.71895075989127L203.62820833333336,130.6144894287131L204.09675,130.72459300071844L204.377875,133.66502977198869L204.6277638888889,131.5558301114232L205.15877777777777,131.60020809550227L205.31495833333332,128.20908488499606L205.37743055555555,126.38064279119662L205.7522638888889,126.67047641015344L205.81473611111113,126.06896402201826L206.00215277777778,126.35660161591636L206.37698611111114,133.68655831585568L206.53316666666666,136.41970367771532L206.84552777777776,138.73328014100878L207.1578888888889,136.12186339786817L207.22036111111112,137.81191771561603L207.68890277777777,139.00463954767406L208.0325,139.83219431496155L208.09497222222222,142.15142636452015L208.21991666666668,144.66106397243678L208.59475,143.24046030004223L208.68845833333333,132.8643117902243L209.9691388888889,130.97091190323619L210.06284722222222,127.6727574700438L210.18779166666667,116.57246338095206L210.62509722222222,117.06563096264563L210.96869444444445,124.68294443261362L211.18734722222223,133.606679577659L211.406,137.00097272099876L211.7183611111111,144.9388511830677L211.81206944444446,144.01163482750115L211.96825,142.6136453490535L212.12443055555556,139.30302367812868L212.31184722222224,136.04698364619304L212.68668055555554,135.85853306224277L212.71791666666667,135.34554653984506L213.24893055555555,135.68415448202012L213.34263888888887,137.1358510657151L213.56129166666668,138.9138403513431L213.936125,140.80985862841607L214.40466666666669,136.50709748524665L214.46713888888888,132.37489701424977L214.6857916666667,135.30213250347936L214.9981527777778,137.61627456682305L215.2480416666667,142.90602435313093L215.31051388888886,145.9641475155498L215.3729861111111,149.91449778285894L215.52916666666667,144.2435795462565L215.81029166666667,146.31635645368314L216.12265277777777,144.92001319491038L216.15388888888887,143.8696946273039L216.46625,144.35593496142567L216.59119444444445,144.1579823015853L216.62243055555555,144.5270226287081L217.21591666666666,137.52330637259686L217.37209722222224,136.88075255086065L217.43456944444446,135.48777051168702L217.46580555555556,135.91164689658893L217.5595138888889,136.91266812681448L217.8406388888889,135.18153607487255L218.40288888888887,131.35321999335036L219.0276111111111,131.65691629853097L219.18379166666665,132.12816248778253L219.46491666666665,132.07724113490428L219.65233333333333,130.09605253235247L219.68356944444446,128.67039994058456L219.71480555555556,128.64580856119065L219.80851388888888,129.85356216403522L219.90222222222224,135.53654185755659L220.3395277777778,139.19499369516137L220.58941666666666,133.96374949010706L221.12043055555554,135.24264889831838L221.15166666666664,136.66329514667692L221.2766111111111,132.23254128268542L221.43279166666665,130.02077690107336L221.65144444444442,128.8752278860969L221.93256944444443,126.68040581563486L221.99504166666665,126.98515647422896L222.30740277777778,127.3110300026633L222.49481944444443,131.87638735069618L222.55729166666666,132.85753200586907L222.74470833333334,133.3290713532941L222.80718055555556,131.00987420464617L222.8696527777778,130.04433064213433L223.24448611111112,133.54031628460308L223.30695833333334,134.80607359224928L223.36943055555557,135.85047000774367L224.0878611111111,138.45788857775105L224.21280555555555,139.43196048162682L224.3689861111111,142.50435204161587L224.46269444444442,143.54798980029454L224.9624722222222,134.9353703801157L225.27483333333333,137.54446620370877L225.30606944444443,139.40978346005636L225.36854166666666,142.6600079496834L225.55595833333334,146.286126191624L225.74337500000001,145.4014959521341L225.9620277777778,140.28855483217524L226.11820833333334,134.06271137048896L226.33686111111112,134.90331255704223L226.5242777777778,134.65127888268267L226.9303472222222,140.81577315655966L227.149,138.5816366453625L227.7424861111111,143.2815769398008L228.36720833333334,139.20245964788165L228.46091666666666,137.24824500717384L228.58586111111111,137.57396003149546L228.6170972222222,140.4159464963829L228.83575,137.43138627341722L229.3667638888889,142.41809688646393L229.71036111111113,140.41386487626312L230.05395833333333,140.25133278455306L230.2726111111111,134.80012743524293L230.46002777777778,137.710880222628L231.20969444444444,138.86245834750503L231.928125,140.32470327331168L232.67779166666668,135.32018782683338L232.70902777777775,131.68514539949967L232.92768055555555,128.00145919175668L233.05262499999998,131.40672181041074L233.45869444444443,132.18792793506998L233.48993055555556,131.02036427828446L233.80229166666666,131.94942470176682L233.9272361111111,130.9432773434142L234.177125,124.32523231524345L234.20836111111112,123.85457910548521L234.33330555555557,123.91441583067702L234.61443055555557,132.13510943073348L234.64566666666667,136.11578699480484L234.95802777777777,140.4470856078326L234.9892638888889,142.94768626975176L235.0205,143.08363340548968L235.2703888888889,144.08853258998568L235.39533333333335,142.33054594940765L235.8951111111111,142.31741391627088L236.64477777777776,138.5635172403341L236.7697222222222,140.4128449700168L236.83219444444444,138.0511607946093L236.86343055555554,135.18800248987284L236.9571388888889,131.99923045567752L237.2382638888889,133.03258138139296L237.2695,132.27603208326843L237.550625,137.8847922855827L237.64433333333335,138.01261938418224L237.95669444444445,137.88972329142854L238.112875,141.06283934499723L239.237375,145.99042971841035L239.5185,146.02988875813207L239.58097222222221,146.60504197184397L239.70591666666667,146.93674240532013L239.89333333333335,146.09830162300165L239.98704166666667,150.38773943766057L240.20569444444445,148.80116970171989L240.29940277777777,152.1194970156578L240.45558333333332,153.84319804345535L240.54929166666668,148.51332178017475L240.79918055555555,147.505489181882L240.924125,146.2166980549132L241.04906944444446,146.9082376840374L241.36143055555556,143.22515306727058L241.39266666666668,140.07350182208992L241.76749999999998,140.86178766056048L241.89244444444444,140.16554241159048L242.1110972222222,142.74211660849147L242.23604166666667,146.24755190269406L242.5796388888889,144.30653946433216L242.95447222222222,144.10535298844425L243.45425,145.90331032669695L244.11020833333333,142.96730194327924L244.23515277777778,141.58617994450148L244.70369444444444,143.56594373501906L244.9535833333333,141.6197210032795L245.141,146.77024088138666L245.26594444444444,147.9627796616216L245.3908888888889,146.08839206493258L245.64077777777777,146.72540923474048L245.82819444444445,144.05692590545306L245.85943055555555,142.90693375391177L246.39044444444446,133.47892483784207L246.60909722222223,131.85080720373065L246.67156944444446,131.276180833507L246.8589861111111,134.72841424103285L247.108875,140.42144324753107L247.20258333333334,145.16060619338407L247.3275277777778,147.07821995248824L247.6398888888889,143.58084232706088L247.88977777777777,147.16405983387386L247.9834861111111,149.62270508539052L248.42079166666667,148.7998231168471L248.5457361111111,148.8264210269381L248.795625,147.45460172924572L248.88933333333333,150.13648773451553L249.07675,145.56321493875924L249.60776388888888,142.11914475972617L249.639,140.78402315268022L249.70147222222224,139.5310505407399L250.26372222222224,133.79945256336606L250.3886666666667,134.580551860476L250.482375,137.751578506079L250.95091666666667,144.9363514377157L251.044625,150.1691394301343L251.16956944444445,147.59634801221418L251.38822222222223,146.47516638083772L251.79429166666668,147.09474367882916L251.98170833333333,146.91125645986864L252.41901388888888,147.4953344842891L252.79384722222224,144.88497385627628L253.01250000000002,144.99206132201314L253.26238888888886,151.5037910229442L253.51227777777777,154.75211359539492L253.54351388888887,157.0339322035245L253.69969444444445,156.4776794972856L253.82463888888887,155.18906647103066L254.23070833333333,157.1882123693051L254.35565277777778,154.02901453400978L254.79295833333333,153.71545758381683L255.16779166666666,151.36086933693406L255.1990277777778,146.6284042267866L255.41768055555556,148.0856678383867L255.66756944444447,148.81389413221598L255.85498611111112,145.9665798875327L256.0424027777778,145.4413130219361L256.2610555555556,149.97097626302127L256.32352777777777,151.0333843026965L256.6046527777778,155.5392901393419L256.667125,156.92484047726666L256.6983611111111,156.76164822766705L257.29184722222226,150.5404156362386L257.3855555555556,148.3442657038791L257.66668055555556,142.0668837431206L258.07275,148.21386725682814L258.4163472222222,139.37806983339073L258.51005555555554,140.91642392365503L258.82241666666664,145.5208032982848L259.32219444444445,151.5900540242971L259.6657916666667,154.394425037526L259.7595,156.70581489743168L260.2280416666667,151.9873017760597L260.5404027777778,148.20280247047438L260.5716388888889,147.0207034034425L260.72781944444444,151.16471437471472L260.75905555555556,155.27135818873265L260.9152361111111,155.23039645716202L260.97770833333334,152.21025316932588L261.1026527777778,150.10674745213262L261.13388888888886,150.17917962057157L261.165125,149.9390402602122L261.63366666666667,152.30291493695768L261.85231944444445,157.96408587432975L261.8835555555556,163.25543877683324L262.0085,164.54674803496744L262.0709722222222,166.01903071928825L262.3520972222222,160.2399277241755L262.47704166666665,153.20465241144467L262.57075000000003,146.3937803260706L263.3828888888889,146.20698835326567L263.414125,148.02062980814776L263.69525,155.8781660442591L263.7889583333333,153.10919839173795L263.91390277777776,148.51255547779942L264.0076111111111,145.3323297105917L264.3199722222222,147.78450432793431L264.3512083333333,149.42645218954164L264.38244444444445,148.28873842111634L264.4136805555556,148.1690030738795L264.5698611111111,151.5567110541513L264.7572777777778,154.527183575812L264.8822222222222,153.51556802951276L264.94469444444445,154.91740731455673L265.3195277777778,154.51540881191366L265.4444722222222,149.5343098365943L265.6318888888889,147.5952440192509L265.663125,146.57730340064813L265.9130138888889,141.61644840658457L266.1004305555556,142.9756920696542L266.2566111111111,148.04084344632895L266.50649999999996,152.0401339860408L266.7251527777778,154.8633831317215L267.0375138888889,156.0546873649948L267.5997638888889,155.89347343450743L267.84965277777775,163.30655325893136L268.56808333333333,165.57452041532738L268.7867361111111,154.3585982336172L268.97415277777776,148.798732910965L269.06786111111114,147.55275903368837L270.0361805555556,149.4497628201535L270.06741666666665,150.86502273973767L270.5047222222222,151.0710493427333" style="fill: none;" fill="none"></path></g></g></g></g><g opacity="0.2"><g><g><g><path stroke="rgb(238, 51, 119)" stroke-width="2px" d="M35.23433333333333,-4.244746541976895L35.64040277777777,0.4470944643020687L36.14018055555556,6.901175999641424L36.233888888888885,3.4561717748642025L36.51501388888889,2.050908827781683L36.85861111111112,-1.8240791320800724L37.1085,-1.4247607946395817L37.233444444444444,2.563710236549383L37.76445833333333,5.683070445060736L38.26423611111111,15.099457526206976L38.451652777777774,5.786144161224371L38.60783333333333,6.589493179321295L39.076375000000006,4.707756066322361L39.26379166666666,11.175517463684088L39.41997222222222,4.988562488555914L39.638625,8.220632100105291L39.76356944444445,6.661655330657965L39.82604166666667,9.440284991264377L40.41952777777778,13.494025492668186L40.91930555555555,17.45795013904572L40.98177777777778,15.165465497970615L41.23166666666667,21.840710663795477L41.6065,27.54250528812409L41.887625,11.088022613525396L42.13751388888888,8.74057235717774L42.63729166666667,20.87337913513184L42.762236111111115,19.96642889976502L44.44898611111111,25.190026187896734L44.48022222222222,22.98447372913361L45.01123611111112,10.940920138359104L45.07370833333333,13.088130974769598L45.10494444444444,17.348898077011143L45.198652777777774,17.20837178230289L45.66719444444445,33.13964369297028L45.76090277777777,34.77057161331177L45.792138888888886,33.714233064651495L46.1045,21.719877743721042L46.63551388888889,31.60250546932221L46.697986111111106,29.712855839729315L47.353944444444444,29.360520267486578L47.447652777777776,20.917970561981235L47.697541666666666,22.871904993057257L47.88495833333334,32.051057243347174L48.04113888888889,30.89639248847962L48.22855555555555,30.446645045280462L48.38473611111111,32.735402011871344L48.69709722222222,20.629427456855808L48.88451388888889,27.398427152633673L49.196875,39.53689577579499L49.38429166666667,34.1789615392685L49.44676388888889,35.58788182735444L49.60294444444444,27.707577967643743L49.63418055555555,28.904302144050604L50.102722222222226,36.07033433914185L50.664972222222225,34.06213762760163L50.727444444444444,32.6556438446045L51.10227777777778,39.473419809341436L51.320930555555556,42.219449901580816L51.35216666666667,37.76062371730805L51.41463888888889,36.750283265113836L51.50834722222223,39.40371932983399L51.570819444444446,43.088490390777594L51.94565277777778,33.29588952064515L52.25801388888889,17.579029226303106L52.35172222222223,23.3182060956955L52.632847222222225,23.523087525367743L52.789027777777775,29.373109960556036L53.60116666666667,32.80756416320801L53.726111111111116,35.76290669441224L53.851055555555554,38.05570783615113L53.88229166666667,29.591952586174017L54.100944444444444,24.886959218978888L54.38206944444445,32.981463694572454L54.50701388888889,40.96681060791016L54.63195833333333,42.6529503107071L54.78813888888889,51.46552445888521L54.91308333333333,51.180427694320684L55.194208333333336,46.92588510513306L55.319152777777774,44.08947649002076L55.35038888888889,37.7607292175293L55.381625,38.47925605773926L55.44409722222222,36.222289824485784L55.66275,34.78815498352051L55.81893055555556,32.39952447414399L55.88140277777778,31.86671319007874L56.03758333333333,35.072161579132086L56.10005555555556,35.55893959999085L56.225,42.856214070320135L56.349944444444446,43.08993222713471L56.53736111111111,42.51288118362427L56.56859722222222,43.982323431968695L57.28702777777778,53.07148399353028L57.411972222222225,49.07485427856446L58.44276388888889,42.49505164623261L58.59894444444444,51.33308651447297L58.66141666666667,54.03273167610169L58.84883333333334,50.16294839382172L59.09872222222222,40.167118930816656L59.286138888888885,44.660514020919805L59.41108333333334,55.0191235780716L59.629736111111114,55.94622435569765L59.69220833333334,55.417949581146246L59.879625,47.35432150363923L59.94209722222222,39.94627180099488L60.379402777777784,46.5300482749939L60.41063888888888,45.434744977951055L60.723,48.8908618927002L60.81670833333333,42.197154188156134L61.097833333333334,36.747786426544195L61.22277777777777,49.8090303182602L61.347722222222224,51.914638900756856L61.62884722222223,61.68951573371888L61.66008333333333,58.33731653690339L61.847500000000004,44.130129241943365L61.87873611111112,37.391161942482L62.03491666666667,43.38782968521119L62.40975,47.04981269836426L62.59716666666667,50.284203314781195L62.690875,55.70891919136048L62.972,61.40958847999573L63.06570833333333,57.62712421417237L63.315597222222216,66.39359476566315L63.909083333333335,64.92643835544587L64.31515277777778,52.3350221157074L64.50256944444445,48.87299718856812L64.59627777777777,46.83926942348481L64.65875,45.67194464206696L64.78369444444445,42.53746273517609L64.97111111111111,50.67325296401978L65.12729166666666,46.919133090972906L65.43965277777778,43.79351320266724L65.62706944444444,47.72336127758027L65.7520138888889,51.48556950092318L65.78325000000001,48.15380218029023L66.09561111111111,62.62544336318972L66.25179166666666,35.29030086994172L67.40752777777777,69.27804114818574L67.53247222222222,71.29049303531647L67.56370833333334,74.14620819091797L67.59494444444444,74.96095123291016L68.15719444444444,53.390375995636006L68.53202777777778,51.67360606193543L68.56326388888888,52.104152464866644L68.75068055555556,45.03342213630677L68.96933333333332,42.0460075378418L69.78147222222222,68.38733794689179L69.84394444444445,69.84485867023469L70.15630555555556,70.83613874912263L70.49990277777778,65.94792666435242L70.59361111111112,59.76877870559693L70.68731944444446,63.26874854564667L71.31204166666666,72.31349351406098L71.49945833333334,62.34713377952578L71.71811111111111,57.67737748622896L71.90552777777778,58.62149896621706L72.2178888888889,71.14121022224427L72.40530555555556,62.658218765258795L72.49901388888888,64.32062091827395L72.84261111111111,48.024986410141L72.93631944444444,50.089274072647115L73.03002777777778,55.894599580764776L73.06126388888889,53.62564148902895L74.56059722222223,57.42364945411684L74.65430555555555,54.878562116622945L74.74801388888889,64.7657615184784L74.77925,64.22324421405794L75.46644444444443,72.62278499603272L75.84127777777778,59.58918216228486L75.90375,60.071916007995625L76.02869444444444,71.43868567943574L76.15363888888889,76.8792617559433L76.27858333333333,67.41135540008545L77.05948611111111,54.455084228515645L77.09072222222221,49.00044145584107L77.43431944444444,61.49377765655518L77.68420833333333,75.99379839897156L77.80915277777778,73.88664247989655L77.87162500000001,74.73479392528535L78.18398611111111,71.89754130840302L78.40263888888889,62.60740282535555L78.87118055555555,67.24614205360413L78.996125,71.5514654159546L79.74579166666668,64.47721841335297L79.77702777777779,67.62200417518616L80.27680555555555,64.88831760883333L80.30804166666667,64.59231915473939L80.77658333333333,79.93760766983033L80.90152777777779,75.71798565387726L81.18265277777779,77.46661665439606L81.40130555555555,90.01389863491059L81.43254166666667,82.63060631752015L81.8386111111111,56.12775506973267L82.11973611111111,79.10545709133149L82.27591666666667,73.578124666214L82.43209722222223,64.86992540359498L82.52580555555556,66.48822846412659L82.68198611111112,64.20172216892244L82.77569444444444,71.89212563037873L83.15052777777777,64.4539380311966L83.40041666666667,78.69080605506898L83.61906944444445,66.9803166627884L83.83772222222223,73.07527544498444L84.11884722222223,81.51705148220063L84.24379166666668,76.58604147434235L84.27502777777777,78.76103403568268L84.30626388888888,77.87884118556977L84.3687361111111,69.70148386955262L84.46244444444444,69.42953946590424L84.68109722222222,72.08512070178986L84.96222222222222,79.70139267444611L85.27458333333334,74.81040241718293L85.39952777777778,73.89430882930756L85.462,74.88907041549683L85.55570833333334,76.78842606544495L85.71188888888888,87.98600854873658L85.80559722222222,89.88863470554352L85.83683333333333,93.14616503715516L85.86806944444444,96.01522597074509L86.46155555555556,96.97140964269639L86.74268055555557,91.6462683916092L86.93009722222223,78.22048606872559L87.14874999999999,78.7940556049347L87.1799861111111,80.68869891166688L87.46111111111111,90.34172298908234L87.67976388888889,74.21098532676697L88.05459722222223,78.35841002464295L88.33572222222223,88.07346823215485L88.46066666666667,78.65015330314637L88.77302777777777,82.68599393367768L88.89797222222222,82.73786487579346L89.17909722222223,78.65796031951905L89.58516666666667,64.93716421127321L89.678875,80.03962638378144L89.86629166666667,76.94878640174866L89.9287638888889,64.82888581752778L90.99079166666667,81.61207201480866L91.17820833333333,68.69117858409882L91.70922222222222,83.74278964996338L91.77169444444444,96.31293001174927L91.83416666666666,89.08725502490998L92.02158333333333,83.06920590400696L92.11529166666666,79.04926064014435L92.17776388888889,79.93296566009522L92.7400138888889,82.37417044639588L93.17731944444444,83.22731556892396L93.23979166666666,81.07377471923829L93.80204166666667,81.19907381534577L93.92698611111112,76.36610867977143L94.17687500000001,74.85369267463685L94.30181944444445,79.55175819396973L94.61418055555555,74.13087549209595L94.70788888888889,71.8447911977768L94.89530555555555,83.70069506168366L95.64497222222222,93.68646683692933L96.01980555555555,94.65008827447892L96.05104166666666,93.96266641616822L96.14475,98.51155462265015L96.1759861111111,96.24038102626801L96.23845833333333,96.8891546368599L96.30093055555555,99.3533760547638L96.425875,95.1300615310669L96.55081944444444,97.6403513789177L96.707,98.70808395147324L96.76947222222222,95.92762562036515L97.2380138888889,99.14750995635987L98.30004166666667,93.89018776416779L98.42498611111111,96.15842493772507L98.48745833333334,95.87538542747498L98.64363888888889,84.49152472019196L98.92476388888888,85.34287633895875L99.17465277777778,94.27958908081055L99.29959722222222,93.19592597484589L99.61195833333333,81.99250581264496L99.67443055555556,77.02119472026826L99.73690277777779,83.89864864349366L99.76813888888888,83.72165443897248L99.89308333333334,86.44338431358338L99.98679166666668,82.30985047817231L100.23668055555557,76.63010540008545L100.36162499999999,76.27699615955353L100.79893055555556,85.42140367031098L100.98634722222222,91.14299716949463L101.14252777777777,83.6748123407364L101.17376388888889,80.75639488697053L101.23623611111111,72.66400041580201L101.32994444444445,93.24973108768464L101.39241666666668,86.42762961387635L101.45488888888889,90.60019853115082L101.486125,88.97394778728486L101.70477777777776,89.0140730381012L101.7984861111111,81.49742844104767L101.95466666666667,90.5200886964798L102.54815277777777,91.32952156066895L102.86051388888889,87.89436402320862L103.04793055555557,78.2263237476349L103.23534722222223,72.95314135551453L103.36029166666665,78.25843098163605L103.39152777777777,74.61227300167084L103.735125,78.45926823616028L103.76636111111111,80.42463185787201L104.23490277777778,83.0561942100525L104.54726388888889,97.1760449051857L104.82838888888888,96.16313728094102L105.35940277777777,86.41437175273896L105.92165277777778,89.01540937423707L105.95288888888889,86.5359783411026L106.01536111111112,81.63545789718628L106.32772222222222,81.0591101884842L106.45266666666666,85.05109789371491L107.04615277777778,106.79984542131425L107.38975,106.8102196097374L107.63963888888888,98.60662790536881L107.82705555555555,97.61622699499131L107.85829166666666,97.13593723773957L107.92076388888889,94.20640709400178L107.98323611111111,93.64264907836915L108.13941666666666,86.15174653530121L108.92031944444444,88.4892094373703L108.95155555555556,92.42176535129548L109.26391666666666,93.22015585899354L109.32638888888889,94.12506642341614L109.48256944444444,98.31442745923997L109.919875,94.01464285850525L110.10729166666667,93.70549204349518L110.32594444444445,88.1546330690384L110.38841666666667,83.06758823394776L110.4508888888889,79.9725634098053L110.85695833333332,70.25852503776551L110.98190277777778,75.67856373786927L111.044375,72.21077146530152L111.45044444444444,88.36739184856415L111.82527777777779,84.52011528015137L112.20011111111111,101.30738081932068L112.23134722222221,102.59335818290711L112.26258333333332,98.6063993215561L112.51247222222221,101.92677261829377L112.69988888888889,107.5266012787819L113.23090277777779,118.05877628326417L113.41831944444445,95.58388831615449L113.44955555555556,92.411953830719L113.69944444444444,91.12608196735383L113.8868611111111,88.11204614639283L114.07427777777778,83.87058558464051L114.23045833333333,73.66980435848237L114.9488888888889,84.72119870185853L115.0113611111111,94.57120927572251L115.16754166666666,99.72155424356461L115.32372222222222,91.92274930477143L115.72979166666667,94.37193694114686L115.94844444444445,98.91201587915421L116.4169861111111,99.99960007667542L116.79181944444444,84.84343829154969L116.88552777777778,86.43628063201905L117.32283333333334,97.8139695763588L117.35406944444445,100.33505561351777L117.41654166666667,97.83886762857438L118.41609722222222,100.91537716388703L118.44733333333333,102.91191610097886L118.47856944444445,99.61005809307099L118.69722222222222,113.04869385957718L119.04081944444445,98.43281629085541L119.5093611111111,95.90045931339264L119.60306944444444,93.46765937805176L119.66554166666667,97.67718853950501L120.602625,124.89902379512787L120.97745833333333,105.54242345094681L121.00869444444444,105.40020915269852L121.28981944444445,100.1130128145218L121.57094444444445,95.84923895597458L121.75836111111111,95.03416182994843L121.88330555555557,95.53820672035218L122.41431944444444,96.93766715526581L122.47679166666666,103.33368840217591L122.50802777777777,103.74288859367371L122.53926388888888,110.43047728538514L122.88286111111111,109.67017235755921L123.44511111111112,101.1521020770073L123.976125,99.68971076011658L124.19477777777777,88.83050265312195L124.22601388888889,90.2808845281601L124.94444444444444,86.28622415065766L125.16309722222223,76.66924598217011L125.22556944444443,78.88742330074311L125.28804166666666,79.2883593082428L125.35051388888888,79.03438510894776L125.47545833333334,68.64458265304566L125.50669444444443,73.75916304588318L125.85029166666666,95.65128537416459L125.944,104.57764151096345L126.19388888888889,83.15694692134858L126.28759722222223,91.15611436367035L126.56872222222223,103.88090046644211L127.03726388888889,103.3940345287323L127.16220833333333,103.70278092622758L127.22468055555555,101.32999303340912L127.69322222222223,101.67221816778184L128.09929166666666,89.31425633430482L128.81772222222222,105.2931440114975L129.2862638888889,102.28000494241715L129.3175,103.59346511363984L129.53615277777777,101.89855130910874L129.69233333333332,101.30815448760987L129.8485138888889,105.99649640321732L129.97345833333333,99.58410503864289L130.03593055555555,98.92954649925233L130.53570833333333,115.94356718063355L130.87930555555556,105.70846321582795L131.09795833333334,102.83950778245926L131.12919444444444,101.68621453046799L131.3478472222222,103.08250995874405L131.44155555555557,102.85779448747635L132.19122222222222,87.26498486995698L132.28493055555555,94.24009683132172L132.50358333333332,92.30423810482026L132.59729166666668,102.1946025133133L132.62852777777778,104.01412966251374L132.691,95.02461405992509L132.7222361111111,96.54255124330521L133.34695833333333,93.32548024654389L133.50313888888888,101.5707621216774L133.7842638888889,109.56818881034852L133.8467361111111,111.8227637052536L134.53393055555557,105.06888570785523L134.78381944444445,108.1782233953476L135.221125,115.71384044885636L135.2523611111111,114.85626431703568L135.40854166666668,109.7890535235405L135.56472222222223,103.82271709442139L135.783375,100.78431072235108L136.6892222222222,110.16542556285859L136.75169444444444,106.34055020809174L136.81416666666667,109.19814678430558L137.06405555555557,108.74398591518403L137.59506944444445,104.08778640031815L137.75125,111.93886669874192L138.43844444444446,89.49912788867951L138.53215277777778,99.00153281688691L138.68833333333333,109.9853894352913L138.9069861111111,105.4486513376236L139.03193055555556,104.6795371413231L139.09440277777776,109.18052824735642L139.28181944444444,103.65854116678238L139.31305555555556,104.30599602460862L139.50047222222221,107.15214582681656L139.719125,99.90315529108048L139.90654166666667,108.33879473209382L140.00025,114.52856304645539L140.5312638888889,96.11186417341233L140.5937361111111,101.37553396224976L140.90609722222223,104.04245647192002L140.99980555555555,107.81217279434205L141.21845833333333,112.0243394613266L141.7182361111111,118.18878772258759L141.78070833333334,123.34475936889649L141.96812500000001,100.4278782248497L142.09306944444447,107.27107974290848L142.15554166666666,106.70292588472367L142.59284722222222,81.51814165115357L143.1238611111111,86.90737428665162L143.49869444444445,93.34777595996857L143.74858333333333,90.40994646549225L144.31083333333333,116.77798601388932L144.37330555555556,117.67355980873108L144.4357777777778,116.72769757509232L144.5294861111111,111.31099971532822L144.62319444444447,113.62829449176789L145.15420833333332,102.58648308515549L145.49780555555554,93.76102032661439L145.52904166666667,99.59825965166092L145.71645833333332,110.99673213958741L145.9351111111111,121.8035593867302L146.87219444444446,118.38005962371827L146.93466666666666,115.23071976900101L147.68433333333334,106.72244342565537L147.8092777777778,103.5901594400406L147.84051388888886,108.04981204271317L147.87175000000002,108.65214797258378L148.05916666666664,111.43974515199662L148.152875,116.75247254371644L148.21534722222222,109.62521167993546L148.49647222222222,103.94915910959244L148.715125,123.50877704620362L149.12119444444446,103.27466102838517L149.37108333333333,111.97449060678483L149.7771527777778,105.9207999944687L149.839625,117.39066096544266L149.93333333333334,125.4454621911049L150.30816666666666,88.85480287075043L150.43311111111112,106.01365777254105L150.58929166666667,110.81514867544175L150.6517638888889,112.59641441106797L150.964125,107.64535936117173L151.08906944444442,112.22667130231858L151.49513888888887,126.09356763362885L151.99491666666665,117.64528574943543L152.15109722222223,102.97808232307435L152.36975,106.48541959524155L153.1506527777778,110.11373045444489L153.1818888888889,111.09043391942978L153.4317777777778,120.92975380420685L153.74413888888887,125.46040805578232L153.99402777777777,106.83715733289719L154.21268055555555,108.25973989963532L154.337625,103.45531257390977L154.6812222222222,121.03207143545151L154.86863888888888,110.93874218463898L155.05605555555556,117.74308445453644L155.74325000000002,123.63121005296708L156.08684722222222,124.87479391098023L156.2430277777778,116.54569211006165L156.5241527777778,124.94927706718445L156.5553888888889,123.34271969795228L156.8989861111111,110.91528596878052L156.9302222222222,116.61852242946625L157.27381944444443,117.11780222654343L157.36752777777778,106.97968813180924L157.58618055555556,119.5990619301796L157.67988888888888,117.92000832557679L157.711125,114.04987337589264L157.7423611111111,113.92882945537568L159.14798611111112,115.7821342587471L159.30416666666667,116.15041794776917L159.3354027777778,106.0274255514145L159.64776388888887,115.89007856845856L161.45945833333334,115.13179572820664L161.928,100.7416886329651L162.27159722222223,83.83788051605225L162.30283333333335,85.65153481960297L162.36530555555558,92.5511789560318L162.42777777777775,103.07540627717972L162.52148611111113,96.68311270475388L162.5527222222222,102.47547926902772L162.61519444444443,87.226406955719L163.33362499999998,100.51929416656495L163.48980555555556,116.49538608789445L163.5835138888889,113.11758550405503L163.83340277777776,116.78869428634644L164.177,103.39464994668961L164.458125,123.93396052122117L164.55183333333335,122.33009340763093L164.58306944444445,122.97893735170365L165.05161111111113,125.47813209295273L165.55138888888888,125.79843076467515L165.73880555555556,120.92215778827668L165.86374999999998,114.03607043027878L166.14487499999998,114.41219630241395L166.2073472222222,117.52304615974427L166.4884722222222,123.38384720087052L166.61341666666667,116.21160807609559L166.80083333333334,108.64108803272248L166.9570138888889,109.88945456743241L167.64420833333335,103.82378968000413L167.76915277777778,111.84196474552155L168.05027777777778,122.65441867113114L168.51881944444443,125.66448065042496L168.7374722222222,114.87768086194993L168.9248888888889,120.06468715667725L169.04983333333334,112.93878021240235L169.08106944444444,109.06715067625046L169.67455555555554,115.24796905517579L169.70579166666667,114.11734076738358L169.7682638888889,121.65861966609955L169.95568055555555,120.72522404193879L170.0493888888889,110.70780220031739L170.8927638888889,133.0389285326004L171.08018055555556,128.05671575069428L171.205125,127.67487528324128L171.2988333333333,129.8641279578209L171.5487222222222,130.74825497865677L171.61119444444444,131.55749442577363L172.14220833333331,120.16009452342988L172.17344444444444,124.40111550092698L172.76693055555555,124.84511318206788L172.79816666666667,117.94200512170792L172.891875,109.50995268821717L173.173,120.22944333553315L173.4228888888889,117.2173065185547L173.48536111111113,115.51499011516572L173.51659722222223,115.43653311729432L173.9851388888889,115.44848980903626L174.29749999999999,79.54215767383576L174.3912083333333,82.57082285881043L174.73480555555554,101.51597234010697L174.8285138888889,105.10755153894425L174.8909861111111,110.6955641746521L174.95345833333332,116.1364040017128L175.32829166666667,124.69918879270554L175.85930555555555,138.0985433101654L176.32784722222223,114.63810744285584L176.5152638888889,123.20349457263947L176.7339166666667,133.75945987701417L176.98380555555556,127.65752049684525L177.10875000000001,130.4974457859993L177.32740277777776,129.1726970911026L177.3586388888889,130.2055266737938L177.389875,123.35687431097031L177.7022361111111,120.72998913526536L178.514375,131.78987624645234L178.67055555555555,126.64512279033661L179.17033333333333,121.27201410531998L179.32651388888888,130.185411298275L179.51393055555556,138.08593603372574L179.638875,113.03974392414094L179.6701111111111,110.60112389326096L179.92000000000002,114.34152873754502L180.01370833333334,110.31296762228013L180.04494444444447,111.74474629163743L180.1074166666667,118.5559460759163L180.201125,119.22666373252869L180.48225,126.7020401597023L180.57595833333332,129.39607622623444L180.60719444444445,130.72191509008408L180.73213888888887,134.85789301395417L180.82584722222222,125.02251180410386L180.85708333333332,124.39381840229035L181.0445,122.38379302024842L181.23191666666668,129.57036259174347L181.29438888888888,131.92674520015717L181.38809722222223,139.69820799827576L182.01281944444446,140.99255504608155L182.4813611111111,125.43413850069047L182.85619444444447,115.8734447002411L183.44968055555555,123.24829699993134L183.51215277777777,127.25440415143967L184.01193055555555,116.3248977303505L184.10563888888888,116.8481612443924L184.1681111111111,125.17225178480149L184.19934722222223,114.39301284551621L184.79283333333333,121.15916403532029L185.54250000000002,127.4467838048935L185.63620833333334,124.12157508134842L186.04227777777777,122.55872997045518L186.29216666666665,105.22068294286728L186.54205555555555,115.16017528772355L186.57329166666665,117.23605039119721L186.667,124.21288552284241L186.72947222222223,123.56704833507538L186.76070833333333,126.82851734161378L187.19801388888888,134.91481038331986L187.44790277777778,134.06528743505478L188.13509722222224,135.0707924604416L188.3225138888889,133.58174475431443L188.41622222222225,133.77396615743638L188.63487500000002,130.04905226230622L189.04094444444442,118.69019510746003L189.10341666666665,118.11789157390595L189.13465277777777,115.80137046575547L189.35330555555555,119.29965230226517L189.91555555555556,131.84522869586945L190.41533333333334,118.77621295452118L190.6339861111111,127.66367467641831L190.79016666666666,131.7632374405861L190.8214027777778,132.23550918102265L191.00881944444444,138.0739617586136L191.4148888888889,131.09522762298585L191.47736111111112,133.74112042188645L191.6647777777778,132.6844126224518L192.47691666666665,123.68167432546616L192.6330972222222,117.01910676956177L193.03916666666666,139.2369961977005L193.1641111111111,136.3287419319153L193.72636111111112,130.4801437497139L193.97625,122.94355961084366L194.69468055555558,133.11525794267655L194.78838888888887,136.4426470041275L194.81962499999997,134.09280540943146L194.94456944444443,130.371320271492L194.97580555555555,133.87828829288483L195.10074999999998,134.2725426197052L195.66299999999998,115.10733726024628L195.78794444444443,128.89904710054398L196.506375,137.69911947250367L196.91244444444445,126.88068720102311L197.41222222222223,137.6641813158989L197.75581944444443,118.3453148841858L198.2555972222222,110.70694061517716L198.34930555555556,110.72549107074738L198.69290277777776,127.0313591003418L198.7241388888889,125.37866296768189L198.8178472222222,120.84095778465272L199.34886111111112,119.68787553310395L199.47380555555557,117.15084137916566L200.09852777777778,125.50491156578065L200.161,123.73955878019333L200.59830555555558,127.27298977375031L200.7544861111111,127.88640322685242L201.19179166666666,125.0930211186409L201.22302777777776,121.60215946435929L201.28549999999998,115.38186641931534L201.44168055555554,124.32807418107987L202.31629166666667,145.6972143292427L202.59741666666667,143.6807710170746L202.81606944444445,145.6817233800888L202.9410138888889,134.33144690990449L203.12843055555555,129.14788695573807L203.31584722222223,128.75373812913895L203.47202777777775,125.99381717443467L203.56573611111114,129.80909200906754L203.62820833333336,131.9577974319458L204.09675,130.8897483587265L204.377875,138.07568492889405L204.6277638888889,128.39203062057496L205.15877777777777,131.66677507162095L205.31495833333332,123.12240006923676L205.37743055555555,123.63797965049744L205.7522638888889,127.10522683858872L205.81473611111113,125.16669543981553L206.00215277777778,126.78805800676346L206.37698611111114,144.68149336576462L206.53316666666666,140.51942172050477L206.84552777777776,142.20364483594895L207.1578888888889,132.20473828315735L207.22036111111112,140.34699919223786L207.68890277777777,140.7937222957611L208.0325,141.0735264658928L208.09497222222222,145.63027443885804L208.21991666666668,148.42552038431168L208.59475,141.1095547914505L208.68845833333333,117.30008902549744L209.9691388888889,128.1308120727539L210.06284722222222,122.72552582025529L210.18779166666667,99.92202224731446L210.62509722222222,117.80538233518601L210.96869444444445,136.10891463756562L211.18734722222223,146.99228229522706L211.406,142.09241243600846L211.7183611111111,156.84566887617112L211.81206944444446,142.6208102941513L211.96825,140.516661131382L212.12443055555556,134.3370911717415L212.31184722222224,131.1629235982895L212.68668055555554,135.57585718631745L212.71791666666667,134.57606675624848L213.24893055555555,136.19206639528275L213.34263888888887,139.31339594125748L213.56129166666668,141.58082427978516L213.936125,143.65388604402543L214.40466666666669,130.05295577049256L214.46713888888888,126.17659630775452L214.6857916666667,139.69298573732377L214.9981527777778,141.08748766183854L215.2480416666667,150.84064903259278L215.31051388888886,150.55133225917817L215.3729861111111,155.84002318382264L215.52916666666667,135.73720219135285L215.81029166666667,149.42552181482316L216.12265277777777,142.82549830675126L216.15388888888887,142.29421677589417L216.46625,145.08529546260834L216.59119444444445,143.8610533118248L216.62243055555555,145.0805831193924L217.21591666666666,127.01773198843003L217.37209722222224,135.91692181825638L217.43456944444446,133.39829745292664L217.46580555555556,136.5474614739418L217.5595138888889,138.41419997215272L217.8406388888889,132.5848379969597L218.40288888888887,125.61074587106705L219.0276111111111,132.11246075630189L219.18379166666665,132.83503177165986L219.46491666666665,132.000859105587L219.65233333333333,127.12426962852479L219.68356944444446,126.53192105293274L219.71480555555556,128.60892149209977L219.80851388888888,131.66519256830216L219.90222222222224,144.0610113978386L220.3395277777778,144.6826714515686L220.58941666666666,126.11688318252564L221.12043055555554,137.16099801063538L221.15166666666664,138.79426451921464L221.2766111111111,125.58641048669816L221.43279166666665,126.70313032865525L221.65144444444442,127.15690436363221L221.93256944444443,123.38817270994187L221.99504166666665,127.44228246212006L222.30740277777778,127.7998402953148L222.49481944444443,138.72442337274552L222.55729166666666,134.3292489886284L222.74470833333334,134.03638037443162L222.80718055555556,127.5310784816742L222.8696527777778,128.59601529836655L223.24448611111112,138.78429474830628L223.30695833333334,136.70470955371857L223.36943055555557,137.41706463098527L224.0878611111111,142.36901643276215L224.21280555555555,140.8930683374405L224.3689861111111,147.11293938159943L224.46269444444442,145.11344643831254L224.9624722222222,122.01644124984742L225.27483333333333,141.45810993909836L225.30606944444443,142.2077593445778L225.36854166666666,147.535344684124L225.55595833333334,151.72530355453492L225.74337500000001,144.07455059289933L225.9620277777778,132.61914315223694L226.11820833333334,124.72394617795945L226.33686111111112,136.1642143368721L226.5242777777778,134.27322837114335L226.9303472222222,150.0625145673752L227.149,135.23043187856675L227.7424861111111,150.3314873814583L228.36720833333334,133.0837837100029L228.46091666666666,134.31692304611207L228.58586111111111,138.0625325679779L228.6170972222222,144.67892619371415L228.83575,132.95454593896866L229.3667638888889,149.8981628060341L229.71036111111113,137.40751686096192L230.05395833333333,140.00753464698792L230.2726111111111,126.62331941127778L230.46002777777778,142.0770094037056L231.20969444444444,140.58982553482056L231.928125,142.51807066202164L232.67779166666668,127.81341465711594L232.70902777777775,126.23258175849915L232.92768055555555,122.47592988014222L233.05262499999998,136.51461573839188L233.45869444444443,133.35973712205887L233.48993055555556,129.26901879310608L233.80229166666666,133.34301533699036L233.9272361111111,129.43405630588532L234.177125,114.39816477298737L234.20836111111112,123.14859929084778L234.33330555555557,124.00417091846467L234.61443055555557,144.46614983081818L234.64566666666667,142.08680334091187L234.95802777777777,146.94403352737427L234.9892638888889,146.69858726263047L235.0205,143.28755410909653L235.2703888888889,145.59588136672974L235.39533333333335,139.69356598854066L235.8951111111111,142.2977158665657L236.64477777777776,132.932672226429L236.7697222222222,143.18683656454087L236.83219444444444,134.50863453149796L236.86343055555554,130.89326503276826L236.9571388888889,127.21607240438462L237.2382638888889,134.58260776996613L237.2695,131.1412081360817L237.550625,146.2979325890541L237.64433333333335,138.2043600320816L237.95669444444445,137.70537915229798L238.112875,145.8225134253502L239.237375,153.38181527853013L239.5185,146.0890773177147L239.58097222222221,147.4677717924118L239.70591666666667,147.43429305553437L239.89333333333335,144.84064044952393L239.98704166666667,156.8218961596489L240.20569444444445,146.42131509780884L240.29940277777777,157.09698798656464L240.45558333333332,156.42874958515168L240.54929166666668,140.5185073852539L240.79918055555555,145.9937402844429L240.924125,144.28351136446L241.04906944444446,147.9455471277237L241.36143055555556,137.70052614212037L241.39266666666668,135.346024954319L241.76749999999998,142.0442164182663L241.89244444444444,139.12117453813553L242.1110972222222,146.60697790384293L242.23604166666667,151.50570484399796L242.5796388888889,141.3950208067894L242.95447222222222,143.80357327461243L243.45425,148.60024633407593L244.11020833333333,138.56328936815262L244.23515277777778,139.51449694633484L244.70369444444444,146.53558942079545L244.9535833333333,138.70038690567017L245.141,154.49602069854737L245.26594444444444,149.75158783197404L245.3908888888889,143.276810669899L245.64077777777777,147.68093498945237L245.82819444444445,140.05420091152192L245.85943055555555,141.1819455265999L246.39044444444446,119.3369114637375L246.60909722222223,129.40863075256348L246.67156944444446,130.41424127817154L246.8589861111111,139.90676435232163L247.108875,148.96098675727845L247.20258333333334,152.26935061216355L247.3275277777778,149.95464059114457L247.6398888888889,138.33477588891984L247.88977777777777,152.53888609409333L247.9834861111111,153.31067296266556L248.42079166666667,147.565500164032L248.5457361111111,148.8663178920746L248.795625,145.39687278270722L248.88933333333333,154.1593167424202L249.07675,138.70330574512482L249.60776388888888,136.9530394911766L249.639,138.7813407421112L249.70147222222224,137.65159162282944L250.26372222222224,125.2020555973053L250.3886666666667,135.7522008061409L250.482375,142.5081184744835L250.95091666666667,155.71351083517075L251.044625,158.0183214187622L251.16956944444445,143.73716088533402L251.38822222222223,144.79339393377305L251.79429166666668,148.02410962581635L251.98170833333333,146.63602563142777L252.41901388888888,148.3714515209198L252.79384722222224,140.96943291425706L253.01250000000002,145.15269252061844L253.26238888888886,161.27138557434083L253.51227777777777,159.62459745407105L253.54351388888887,160.45666011571885L253.69969444444445,155.64330043792725L253.82463888888887,153.25614693164826L254.23070833333333,160.18693121671677L254.35565277777778,149.2902177810669L254.79295833333333,153.24512215852738L255.16779166666666,147.82898696660996L255.1990277777778,139.5297065615654L255.41768055555556,150.2715632557869L255.66756944444447,149.9062335729599L255.85498611111112,141.69560852050782L256.0424027777778,144.65341272354127L256.2610555555556,156.76547112464905L256.32352777777777,152.62699636220933L256.6046527777778,162.29814889431L256.667125,159.00316598415375L256.6983611111111,156.51685985326768L257.29184722222226,141.20856674909592L257.3855555555556,145.05004080533982L257.66668055555556,132.65081080198289L258.07275,157.43434252738953L258.4163472222222,126.12437369823456L258.51005555555554,143.22395505905152L258.82241666666664,152.4273723602295L259.32219444444445,160.6939301133156L259.6657916666667,158.60098155736924L259.7595,160.1728996872902L260.2280416666667,144.90953209400178L260.5404027777778,142.5260535120964L260.5716388888889,145.2475548028946L260.72781944444444,157.38073083162308L260.75905555555556,161.43132390975953L260.9152361111111,155.16895385980607L260.97770833333334,147.68003823757172L261.1026527777778,146.95148887634278L261.13388888888886,150.28782787323L261.165125,149.57883121967316L261.63366666666667,155.84872695207596L261.85231944444445,166.45584228038788L261.8835555555556,171.19246813058854L262.0085,166.48371192216874L262.0709722222222,168.2274547457695L262.3520972222222,151.57127323150635L262.47704166666665,142.6517394423485L262.57075000000003,136.1774721980095L263.3828888888889,145.92680039405823L263.414125,150.7410919904709L263.69525,167.66447039842606L263.7889583333333,148.95574691295624L263.91390277777776,141.61759110689164L264.0076111111111,140.56199105978013L264.3199722222222,151.46276625394822L264.3512083333333,151.88937398195267L264.38244444444445,146.5821677684784L264.4136805555556,147.9894000530243L264.5698611111111,156.63827302455903L264.7572777777778,158.98289235830308L264.8822222222222,151.99814471006394L264.94469444444445,157.02016624212266L265.3195277777778,153.91241105794907L265.4444722222222,142.06266137361527L265.6318888888889,144.68664529323578L265.663125,145.050392472744L265.9130138888889,134.1751659154892L266.1004305555556,145.01455756425858L266.2566111111111,155.6385705113411L266.50649999999996,158.03906979560853L266.7251527777778,159.09825685024262L267.0375138888889,157.8416437149048L267.5997638888889,155.6516525387764L267.84965277777775,174.42617299556733L268.56808333333333,168.97647114992142L268.7867361111111,137.53471496105195L268.97415277777776,140.4589349269867L269.06786111111114,145.68379821777344L270.0361805555556,152.29526849985123L270.06741666666665,152.98791261911393L270.5047222222222,151.38008924722672" style="fill: none;" fill="none"></path></g></g></g></g></g></g><g transform="translate(48, 177)" clip-path="url(#clip_1)"><clipPath id="clip_1"><rect width="281" height="23"></rect></clipPath><g><g><line x1="0" y1="0" x2="0" y2="5" style="visibility: inherit;" fill="rgb(0, 0, 0)" stroke="rgb(204, 204, 204)" stroke-width="1px"></line><line x1="31.23611111111111" y1="0" x2="31.23611111111111" y2="5" style="visibility: inherit;" fill="rgb(0, 0, 0)" stroke="rgb(204, 204, 204)" stroke-width="1px"></line><line x1="62.47222222222222" y1="0" x2="62.47222222222222" y2="5" style="visibility: inherit;" fill="rgb(0, 0, 0)" stroke="rgb(204, 204, 204)" stroke-width="1px"></line><line x1="93.70833333333333" y1="0" x2="93.70833333333333" y2="5" style="visibility: inherit;" fill="rgb(0, 0, 0)" stroke="rgb(204, 204, 204)" stroke-width="1px"></line><line x1="124.94444444444444" y1="0" x2="124.94444444444444" y2="5" style="visibility: inherit;" fill="rgb(0, 0, 0)" stroke="rgb(204, 204, 204)" stroke-width="1px"></line><line x1="156.18055555555557" y1="0" x2="156.18055555555557" y2="5" style="visibility: inherit;" fill="rgb(0, 0, 0)" stroke="rgb(204, 204, 204)" stroke-width="1px"></line><line x1="187.41666666666666" y1="0" x2="187.41666666666666" y2="5" style="visibility: inherit;" fill="rgb(0, 0, 0)" stroke="rgb(204, 204, 204)" stroke-width="1px"></line><line x1="218.65277777777777" y1="0" x2="218.65277777777777" y2="5" style="visibility: inherit;" fill="rgb(0, 0, 0)" stroke="rgb(204, 204, 204)" stroke-width="1px"></line><line x1="249.88888888888889" y1="0" x2="249.88888888888889" y2="5" style="visibility: inherit;" fill="rgb(0, 0, 0)" stroke="rgb(204, 204, 204)" stroke-width="1px"></line><line x1="281.125" y1="0" x2="281.125" y2="5" style="visibility: inherit;" fill="rgb(0, 0, 0)" stroke="rgb(204, 204, 204)" stroke-width="1px"></line></g><g transform="translate(0, 8)"><text x="0" y="0" dx="0em" dy="0.95em" style="text-anchor: middle; visibility: hidden; font-family: &quot;Helvetica Neue&quot;, sans-serif; font-size: 12px; font-weight: 200;" fill="rgb(50, 49, 63)" stroke="none" stroke-width="1px">-1k</text><text x="31.23611111111111" y="0" dx="0em" dy="0.95em" style="text-anchor: middle; visibility: inherit; font-family: &quot;Helvetica Neue&quot;, sans-serif; font-size: 12px; font-weight: 200;" fill="rgb(50, 49, 63)" stroke="none" stroke-width="1px">0</text><text x="62.47222222222222" y="0" dx="0em" dy="0.95em" style="text-anchor: middle; visibility: inherit; font-family: &quot;Helvetica Neue&quot;, sans-serif; font-size: 12px; font-weight: 200;" fill="rgb(50, 49, 63)" stroke="none" stroke-width="1px">1k</text><text x="93.70833333333333" y="0" dx="0em" dy="0.95em" style="text-anchor: middle; visibility: inherit; font-family: &quot;Helvetica Neue&quot;, sans-serif; font-size: 12px; font-weight: 200;" fill="rgb(50, 49, 63)" stroke="none" stroke-width="1px">2k</text><text x="124.94444444444444" y="0" dx="0em" dy="0.95em" style="text-anchor: middle; visibility: inherit; font-family: &quot;Helvetica Neue&quot;, sans-serif; font-size: 12px; font-weight: 200;" fill="rgb(50, 49, 63)" stroke="none" stroke-width="1px">3k</text><text x="156.18055555555557" y="0" dx="0em" dy="0.95em" style="text-anchor: middle; visibility: inherit; font-family: &quot;Helvetica Neue&quot;, sans-serif; font-size: 12px; font-weight: 200;" fill="rgb(50, 49, 63)" stroke="none" stroke-width="1px">4k</text><text x="187.41666666666666" y="0" dx="0em" dy="0.95em" style="text-anchor: middle; visibility: inherit; font-family: &quot;Helvetica Neue&quot;, sans-serif; font-size: 12px; font-weight: 200;" fill="rgb(50, 49, 63)" stroke="none" stroke-width="1px">5k</text><text x="218.65277777777777" y="0" dx="0em" dy="0.95em" style="text-anchor: middle; visibility: inherit; font-family: &quot;Helvetica Neue&quot;, sans-serif; font-size: 12px; font-weight: 200;" fill="rgb(50, 49, 63)" stroke="none" stroke-width="1px">6k</text><text x="249.88888888888889" y="0" dx="0em" dy="0.95em" style="text-anchor: middle; visibility: inherit; font-family: &quot;Helvetica Neue&quot;, sans-serif; font-size: 12px; font-weight: 200;" fill="rgb(50, 49, 63)" stroke="none" stroke-width="1px">7k</text><text x="281.125" y="0" dx="0em" dy="0.95em" style="text-anchor: middle; visibility: hidden; font-family: &quot;Helvetica Neue&quot;, sans-serif; font-size: 12px; font-weight: 200;" fill="rgb(50, 49, 63)" stroke="none" stroke-width="1px">8k</text></g><line x1="0" y1="0" x2="281.125" y2="0" fill="rgb(0, 0, 0)" stroke="rgb(204, 204, 204)" stroke-width="1px"></line></g></g></g></g></svg>